<?xml version="1.0" encoding="utf-8"?>
<!-- Generator: Adobe Illustrator 22.0.1, SVG Export Plug-In . SVG Version: 6.00 Build 0)  -->
<svg version="1.1" id="Capa_3" xmlns="http://www.w3.org/2000/svg" xmlns:xlink="http://www.w3.org/1999/xlink" x="0px" y="0px"
	 viewBox="0 0 417 113.5" style="enable-background:new 0 0 417 113.5;" xml:space="preserve">
<style type="text/css">
	.st0{enable-background:new    ;}
	.st1{clip-path:url(#SVGID_2_);}
	.st2{fill:#009BDB;}
	.st3{fill:#FFFFFF;}
	.st4{fill:#004C5D;}
</style>
<g>
	<g>
		<g class="st0">
			<g>
				<g>
					<defs>
						<polygon id="SVGID_1_" points="5.9,96.1 -4.9,9.2 87.6,2.4 97.7,102.5 						"/>
					</defs>
					<clipPath id="SVGID_2_">
						<use xlink:href="#SVGID_1_"  style="overflow:visible;"/>
					</clipPath>
					<g class="st1">
						<g>
							<g>
								<g>
									<path class="st2" d="M34.2,35.4L34.2,35.4v0.2v0.1v0.1c-0.1,0.5-0.1,1.1-0.2,1.7c-0.1,0.6-0.1,1.3-0.2,2
										c-0.1,0.7-0.1,1.4-0.2,2.2c-0.1,0.8-0.1,1.6-0.2,2.4c-0.1,1.6-0.3,3.3-0.4,5c-0.1,1.7-0.2,3.4-0.4,5
										c-0.1,1.6-0.2,3.2-0.4,4.7c-0.1,1.5-0.2,2.8-0.3,4c0,0.3-0.1,0.6-0.1,0.9s-0.1,0.6-0.1,0.8c0,0.3-0.1,0.5-0.1,0.8
										c0,0.2-0.1,0.4-0.1,0.6c0,0.1,0,0.2-0.1,0.3c0,0.1,0,0.2-0.1,0.3c0,0.1,0,0.2-0.1,0.3c0,0.1,0,0.2-0.1,0.3v0.1
										c0,0,0,0.1-0.1,0.1c0,0-0.1,0.1-0.1,0.2s-0.1,0.1-0.1,0.2l-0.1,0.1l-0.1,0.1c-0.1,0-0.1,0.1-0.2,0.1s-0.1,0-0.2,0
										s-0.1,0-0.2,0s-0.1,0-0.2-0.1c-0.1,0-0.1,0-0.2-0.1l-0.1-0.1l-0.1-0.1l-0.1-0.1l-0.1-0.1l-0.1-0.1c0-0.1-0.1-0.1-0.1-0.2
										s-0.1-0.1-0.1-0.2s-0.1-0.1-0.1-0.2s-0.1-0.1-0.1-0.2c-0.1-0.1-0.1-0.2-0.2-0.3c-0.1-0.1-0.1-0.2-0.2-0.3
										c-0.1-0.1-0.1-0.2-0.2-0.4c-0.1-0.1-0.1-0.3-0.2-0.4c-0.1-0.3-0.2-0.6-0.3-0.9c-0.1-0.3-0.2-0.7-0.4-1
										c-0.1-0.4-0.3-0.7-0.4-1.1c-0.1-0.4-0.3-0.8-0.4-1.2c-0.3-0.8-0.5-1.6-0.8-2.5c-0.3-0.8-0.6-1.7-0.8-2.5
										c-0.3-0.8-0.5-1.6-0.8-2.4c-0.3-0.7-0.5-1.4-0.7-2v-0.1v-0.1v-0.1v-0.1l0,0l0,0l0,0l0,0c-0.1,0.3-0.2,0.6-0.3,0.9
										c-0.1,0.3-0.2,0.6-0.3,1c-0.1,0.3-0.2,0.7-0.4,1c-0.1,0.3-0.3,0.7-0.5,1c-0.1,0.2-0.2,0.4-0.4,0.6
										c-0.1,0.2-0.3,0.4-0.4,0.6c-0.1,0.2-0.3,0.4-0.5,0.5c-0.2,0.2-0.4,0.3-0.6,0.4c-0.1,0.1-0.2,0.1-0.4,0.2
										c-0.1,0.1-0.2,0.1-0.4,0.1C19.3,58,19.2,58,19,58c-0.1,0-0.3,0-0.4,0H10c0.1,0.1,0.2,0.2,0.2,0.4c0.1,0.1,0.2,0.2,0.2,0.4
										c0.1,0.1,0.2,0.2,0.2,0.4c0.1,0.1,0.2,0.2,0.2,0.4c0.5,0.7,1,1.4,1.5,2.1c0.5,0.7,1,1.4,1.6,2c0.5,0.7,1.1,1.3,1.6,2
										c0.5,0.6,1.1,1.3,1.7,1.9c0.8,0.9,1.6,1.8,2.5,2.8c0.8,0.9,1.7,1.8,2.5,2.7c0.9,0.9,1.7,1.8,2.6,2.7
										c0.9,0.9,1.7,1.8,2.6,2.7c1.4,1.5,2.9,3,4.4,4.5c1.5,1.5,2.9,3.1,4.4,4.6s2.9,3.1,4.4,4.7s2.9,3.2,4.4,4.8
										c0.2,0.2,0.3,0.3,0.5,0.5s0.3,0.4,0.5,0.5c0.2,0.2,0.3,0.4,0.5,0.5c0.2,0.2,0.3,0.4,0.5,0.5c0,0,0-0.1,0.1-0.1
										c0,0,0,0,0.1-0.1c0,0,0,0,0.1-0.1c0,0,0,0,0-0.1c0.2-0.2,0.3-0.4,0.5-0.6s0.3-0.4,0.5-0.6s0.3-0.4,0.5-0.6s0.3-0.4,0.5-0.6
										c1-1.3,2.1-2.7,3.2-4c1.1-1.3,2.2-2.6,3.3-4c1.1-1.3,2.2-2.7,3.3-4s2.3-2.7,3.4-4c0.8-0.9,1.6-1.8,2.4-2.8
										c0.8-0.9,1.6-1.9,2.4-2.8s1.6-1.9,2.4-2.9s1.6-2,2.3-3c0.6-0.7,1.1-1.5,1.7-2.3c0.5-0.8,1.1-1.5,1.6-2.3
										c0.5-0.8,1-1.6,1.5-2.5c0.5-0.8,1-1.7,1.4-2.6c0-0.1,0.1-0.1,0.1-0.2c0-0.1,0.1-0.1,0.1-0.2c0-0.1,0.1-0.1,0.1-0.2
										c0-0.1,0.1-0.1,0.1-0.2l-10.3-0.1c-0.1,0-0.2,0-0.3,0c-0.1,0-0.2,0-0.3,0.1c-0.1,0-0.2,0.1-0.2,0.1c-0.1,0-0.2,0.1-0.2,0.1
										c-0.1,0.1-0.1,0.1-0.2,0.2c-0.1,0.1-0.1,0.1-0.2,0.2c-0.1,0.1-0.1,0.2-0.2,0.3s-0.1,0.2-0.2,0.3c-0.1,0.2-0.2,0.5-0.3,0.8
										c-0.1,0.3-0.2,0.6-0.3,0.9c-0.1,0.3-0.2,0.6-0.3,1c-0.1,0.3-0.2,0.7-0.2,1c0,0.2-0.1,0.4-0.1,0.6c0,0.2-0.1,0.4-0.1,0.6
										c0,0.2-0.1,0.4-0.1,0.6S65,65.4,65,65.6c0,0.1-0.1,0.2-0.1,0.3c0,0.1-0.1,0.2-0.1,0.3c0,0.1-0.1,0.2-0.1,0.3
										c0,0.1-0.1,0.2-0.1,0.3c0,0.1-0.1,0.1-0.1,0.2s-0.1,0.1-0.1,0.2s-0.1,0.1-0.1,0.2l-0.1,0.1c-0.1,0-0.1,0.1-0.2,0.1
										s-0.1,0.1-0.2,0.1c-0.1,0-0.2,0.1-0.2,0.1c-0.1,0-0.2,0-0.3,0s-0.2,0-0.3,0s-0.2-0.1-0.2-0.1c-0.1,0-0.1-0.1-0.2-0.1
										c-0.1,0-0.1-0.1-0.2-0.1c-0.1,0-0.1-0.1-0.1-0.1l-0.1-0.1l-0.1-0.1L62,67.1c-0.1-0.1-0.1-0.2-0.2-0.3
										c-0.1-0.1-0.1-0.2-0.1-0.3c0-0.1-0.1-0.2-0.1-0.3c0-0.1-0.1-0.2-0.1-0.3c-0.1-0.2-0.2-0.4-0.3-0.6s-0.2-0.5-0.3-0.7
										s-0.2-0.5-0.3-0.8s-0.2-0.5-0.3-0.8c-0.2-0.6-0.4-1.2-0.6-1.8c-0.2-0.6-0.4-1.3-0.6-1.9c-0.2-0.7-0.4-1.3-0.6-2
										c-0.2-0.7-0.4-1.3-0.6-1.9c-0.1-0.4-0.3-0.8-0.4-1.2c-0.1-0.4-0.2-0.7-0.4-1.1c-0.1-0.3-0.2-0.7-0.4-1
										c-0.1-0.3-0.2-0.6-0.3-0.9c0,0.1,0,0.2,0,0.3s0,0.2,0,0.3s0,0.2,0,0.3s0,0.2,0,0.3c-0.1,0.5-0.2,1.1-0.2,1.7
										c-0.1,0.6-0.2,1.3-0.2,2c-0.1,0.7-0.2,1.4-0.2,2.2c-0.1,0.8-0.2,1.6-0.2,2.4c-0.1,1.6-0.3,3.3-0.4,5
										c-0.1,1.7-0.3,3.4-0.4,5c-0.1,1.6-0.3,3.2-0.4,4.7c-0.1,1.5-0.3,2.8-0.4,4c0,0.3-0.1,0.6-0.1,0.9s-0.1,0.6-0.1,0.9
										s-0.1,0.5-0.1,0.8c0,0.2-0.1,0.5-0.1,0.7c0,0.1,0,0.2-0.1,0.3c0,0.1,0,0.2-0.1,0.3c0,0.1-0.1,0.2-0.1,0.3
										c0,0.1-0.1,0.2-0.1,0.3c0,0,0,0.1-0.1,0.1s0,0.1-0.1,0.1c0,0.1-0.1,0.1-0.1,0.2s-0.1,0.1-0.2,0.2l-0.1,0.1l-0.1,0.1
										c-0.1,0-0.1,0-0.2,0c-0.1,0-0.1,0-0.2,0c-0.1,0-0.1,0-0.2,0c-0.1,0-0.1,0-0.2-0.1c-0.1,0-0.1,0-0.2-0.1l-0.1-0.1l-0.1-0.1
										l-0.1-0.1l-0.1-0.1c0,0,0,0-0.1-0.1l-0.1-0.1H50c0,0,0-0.1-0.1-0.1c0,0,0-0.1-0.1-0.1c0-0.1-0.1-0.1-0.1-0.2
										s-0.1-0.1-0.1-0.2s-0.1-0.2-0.1-0.2c0-0.1-0.1-0.2-0.1-0.3c-0.1-0.2-0.2-0.4-0.2-0.6c-0.1-0.2-0.2-0.4-0.3-0.7
										c-0.1-0.2-0.2-0.5-0.3-0.7c-0.1-0.3-0.2-0.5-0.3-0.8c-0.2-0.6-0.4-1.2-0.6-1.9c-0.2-0.7-0.5-1.4-0.7-2.2
										c-0.3-0.8-0.5-1.6-0.8-2.5s-0.6-1.8-0.8-2.7c-0.6-1.9-1.2-3.8-1.8-5.8s-1.3-4.1-1.9-6.2c-0.6-2.1-1.3-4.2-1.9-6.2
										c-0.6-2-1.3-4-1.9-5.9c-0.4-1.1-0.7-2.3-1.1-3.3c-0.3-1.1-0.7-2.1-1-3s-0.6-1.8-0.9-2.6C34.7,36.7,34.5,36,34.2,35.4
										 M33.3,33.1L33.3,33.1L33.3,33.1 M17.7,7.5c-0.4,0-0.7,0.1-1.1,0.1c-0.4,0.1-0.7,0.1-1,0.2s-0.7,0.2-1,0.3
										c-0.3,0.1-0.7,0.2-1,0.4c-1.1,0.4-2.2,1-3.1,1.6c-1,0.7-1.9,1.4-2.7,2.3c-0.8,0.9-1.6,1.9-2.2,3c-0.7,1.1-1.3,2.3-1.8,3.7
										c-0.4,1.1-0.7,2.1-1,3.3c-0.3,1.1-0.5,2.2-0.6,3.4c-0.2,1-0.3,2.2-0.3,3.4s0.1,2.4,0.2,3.7c0.1,0.6,0.1,1.1,0.2,1.7
										c0.1,0.6,0.1,1.1,0.2,1.7c0.1,0.5,0.2,1.1,0.3,1.6c0,0.5,0.1,1.1,0.2,1.6c0.1,0.6,0.2,1.1,0.3,1.7c0.1,0.6,0.2,1.1,0.4,1.7
										C3.9,43.5,4,44,4.2,44.6s0.3,1.1,0.5,1.7c0.2,0.8,0.5,1.6,0.8,2.3c0.3,0.8,0.6,1.5,0.9,2.3c0.3,0.7,0.6,1.5,1,2.2
										c0.3,0.7,0.7,1.4,1.1,2.1h9.9c0.1,0,0.2,0,0.3,0c0.1,0,0.2,0,0.2-0.1c0.1,0,0.1-0.1,0.2-0.1s0.1-0.1,0.2-0.1
										c0.1-0.1,0.1-0.1,0.2-0.2c0.1-0.1,0.1-0.1,0.2-0.2c0.1-0.1,0.1-0.2,0.2-0.3s0.1-0.2,0.2-0.3c0.1-0.2,0.2-0.4,0.3-0.7
										c0.1-0.2,0.2-0.5,0.3-0.8c0.1-0.3,0.2-0.5,0.3-0.8c0.1-0.3,0.2-0.6,0.2-0.8c0.1-0.2,0.1-0.4,0.2-0.5
										c0.1-0.2,0.1-0.3,0.2-0.5s0.1-0.3,0.2-0.5s0.1-0.3,0.2-0.5c0-0.1,0.1-0.2,0.1-0.3s0.1-0.2,0.1-0.2c0-0.1,0.1-0.2,0.2-0.2
										c0.1-0.1,0.1-0.2,0.2-0.2l0.1-0.1c0.1,0,0.1-0.1,0.2-0.1s0.1-0.1,0.2-0.1s0.1,0,0.2,0s0.1,0,0.2,0s0.1,0,0.2,0
										s0.1,0,0.1,0.1l0.1,0.1l0.1,0.1l0.1,0.1C24,48,24,48,24,48l0.1,0.1c0,0.1,0.1,0.1,0.1,0.2c0,0.1,0.1,0.1,0.1,0.2
										c0,0.1,0.1,0.1,0.1,0.2c0,0.1,0.1,0.1,0.1,0.2c0.1,0.1,0.1,0.2,0.2,0.3s0.1,0.2,0.2,0.3s0.1,0.2,0.2,0.4
										c0.1,0.1,0.1,0.3,0.2,0.4c0.1,0.3,0.2,0.6,0.3,0.9c0.1,0.3,0.2,0.7,0.4,1c0.1,0.4,0.3,0.7,0.4,1.1c0.1,0.4,0.3,0.8,0.4,1.2
										c0.2,0.7,0.5,1.5,0.8,2.3s0.5,1.6,0.8,2.3c0.3,0.8,0.5,1.5,0.7,2.2s0.5,1.4,0.7,2c0,0,0,0,0-0.1c0,0,0,0,0-0.1
										c0,0,0,0,0-0.1s0,0,0-0.1c0.1-0.5,0.1-1.1,0.2-1.7c0.1-0.6,0.1-1.3,0.2-2s0.1-1.4,0.2-2.2s0.1-1.5,0.2-2.3
										c0.1-1.6,0.2-3.3,0.4-5c0.1-1.7,0.2-3.4,0.4-5.1c0.1-1.7,0.3-3.3,0.4-4.8s0.3-2.9,0.4-4.1c0-0.3,0.1-0.7,0.1-1
										s0.1-0.6,0.1-0.9c0-0.3,0.1-0.5,0.1-0.8c0-0.2,0.1-0.5,0.1-0.7c0-0.1,0.1-0.2,0.1-0.3c0-0.1,0.1-0.2,0.1-0.3
										c0-0.1,0.1-0.2,0.1-0.3c0-0.1,0.1-0.2,0.1-0.3c0,0,0-0.1,0.1-0.1c0-0.1,0.1-0.1,0.1-0.2s0.1-0.1,0.1-0.2s0.1-0.1,0.2-0.2
										l0.1-0.1c0,0,0.1,0,0.1-0.1c0,0,0.1,0,0.2,0c0.1,0,0.1,0,0.2,0c0.1,0,0.1,0,0.2,0c0.1,0,0.1,0,0.2,0c0,0,0.1,0,0.1,0.1
										c0,0,0.1,0,0.1,0.1c0,0,0.1,0,0.1,0.1c0,0,0.1,0,0.1,0.1c0,0,0.1,0,0.1,0.1c0,0,0,0,0.1,0.1l0.1,0.1l0.1,0.1l0.1,0.1
										c0,0,0,0.1,0.1,0.1c0,0.1,0.1,0.1,0.1,0.2s0.1,0.2,0.1,0.2c0,0.1,0.1,0.2,0.1,0.2s0.1,0.2,0.1,0.3c0.1,0.2,0.2,0.4,0.3,0.6
										c0.1,0.2,0.2,0.4,0.3,0.7c0.1,0.2,0.2,0.5,0.3,0.8s0.2,0.6,0.3,0.9c0.2,0.6,0.4,1.3,0.7,2c0.2,0.7,0.5,1.5,0.8,2.3
										s0.5,1.7,0.8,2.5c0.3,0.9,0.6,1.8,0.9,2.8c0.6,1.9,1.2,3.9,1.9,6c0.6,2.1,1.3,4.2,2,6.4c0.7,2.1,1.3,4.3,2,6.4
										c0.6,2.1,1.3,4.1,1.9,6c0.3,1,0.6,1.9,0.9,2.8c0.3,0.9,0.6,1.8,0.8,2.6c0.3,0.8,0.5,1.6,0.8,2.3c0.2,0.7,0.5,1.4,0.7,1.9
										c0.1-0.5,0.1-1.1,0.2-1.7c0.1-0.6,0.1-1.3,0.2-1.9c0.1-0.7,0.1-1.4,0.2-2.2c0.1-0.7,0.1-1.5,0.2-2.3c0.1-1.6,0.3-3.3,0.4-5
										c0.1-1.7,0.3-3.4,0.4-5.1c0.1-1.7,0.3-3.3,0.4-4.8c0.2-1.5,0.3-2.9,0.5-4.1c0-0.3,0.1-0.7,0.1-1s0.1-0.6,0.1-0.9
										c0-0.3,0.1-0.5,0.1-0.8c0.1-0.2,0.1-0.5,0.2-0.7c0-0.1,0.1-0.2,0.1-0.3s0.1-0.2,0.1-0.3s0.1-0.2,0.1-0.3s0.1-0.2,0.1-0.3
										s0.1-0.1,0.1-0.2c0-0.1,0.1-0.1,0.1-0.2c0-0.1,0.1-0.1,0.1-0.2c0.1,0,0.1-0.1,0.2-0.1c0,0,0.1,0,0.1-0.1c0,0,0.1,0,0.1-0.1
										h0.1c0.1,0,0.1,0,0.2,0l0,0l0,0l0,0l0,0c0.1,0,0.1,0,0.2,0c0.1,0,0.1,0,0.2,0.1c0.1,0,0.1,0.1,0.2,0.1
										c0.1,0,0.1,0.1,0.2,0.1c0.1,0,0.1,0.1,0.2,0.1l0.1,0.1l0.1,0.1l0.1,0.1c0.1,0.1,0.1,0.2,0.2,0.3c0.1,0.1,0.1,0.2,0.2,0.3
										c0.1,0.1,0.1,0.2,0.2,0.3c0.1,0.1,0.1,0.2,0.2,0.3c0.1,0.2,0.2,0.4,0.3,0.6c0.1,0.2,0.2,0.5,0.3,0.7s0.2,0.5,0.3,0.8
										s0.2,0.5,0.3,0.8c0.2,0.6,0.4,1.2,0.6,1.8c0.2,0.6,0.4,1.3,0.6,1.9c0.2,0.7,0.4,1.3,0.6,2c0.2,0.7,0.4,1.3,0.6,2
										c0.1,0.4,0.2,0.7,0.3,1.1c0.1,0.4,0.2,0.7,0.3,1s0.2,0.6,0.3,0.9c0.1,0.3,0.2,0.6,0.3,0.8c0.1-0.3,0.1-0.7,0.2-1.1
										c0.1-0.4,0.2-0.8,0.3-1.2s0.2-0.8,0.3-1.3c0.1-0.4,0.3-0.8,0.4-1.2c0.1-0.3,0.2-0.5,0.4-0.8c0.1-0.3,0.3-0.5,0.5-0.7
										s0.3-0.5,0.6-0.7c0.2-0.2,0.4-0.4,0.7-0.5c0.1-0.1,0.3-0.2,0.4-0.2c0.2-0.1,0.3-0.1,0.5-0.2c0.2,0,0.3-0.1,0.5-0.1
										s0.4,0,0.5,0h11.9c0.4-1.2,0.8-2.4,1.1-3.7c0.3-1.3,0.6-2.5,0.8-3.8c0.2-1.3,0.4-2.7,0.5-4c0.1-1.4,0.1-2.8,0.1-4.2
										c0-0.6,0-1.1,0-1.7c0-0.6,0-1.1-0.1-1.7c0-0.6-0.1-1.1-0.1-1.7c0-0.6-0.1-1.1-0.1-1.7c-0.1-0.6-0.1-1.3-0.2-1.9
										s-0.2-1.3-0.3-1.9c-0.1-0.6-0.2-1.3-0.4-1.9c-0.1-0.6-0.3-1.3-0.5-1.9c-0.4-1.6-1-3.1-1.6-4.5s-1.3-2.8-2-4.1
										c-0.8-1.3-1.6-2.5-2.5-3.6s-1.9-2.2-3-3.1c-0.9-0.8-1.9-1.6-2.9-2.2s-2-1.2-3-1.6s-2.1-0.8-3.1-1.1C61,5,59.9,4.8,58.8,4.7
										c-0.2,0-0.5,0-0.7,0s-0.5,0-0.7,0s-0.5,0-0.7,0s-0.5,0-0.7,0c-0.3,0-0.6,0.1-0.9,0.1c-0.3,0-0.6,0.1-0.9,0.1
										C54,5,53.7,5,53.4,5.1s-0.6,0.1-0.9,0.2c-0.9,0.2-1.7,0.6-2.5,0.9c-0.8,0.4-1.6,0.8-2.3,1.3s-1.4,1-2.1,1.6
										c-0.7,0.6-1.3,1.3-2,2c-0.6,0.7-1.2,1.4-1.7,2.2s-1,1.5-1.5,2.4c-0.5,0.8-0.9,1.7-1.3,2.6c-0.4,0.9-0.7,1.8-1.1,2.7v0.1
										v0.1v0.1v0.1h-0.1c0,0,0,0,0-0.1c0,0,0,0,0-0.1c0,0,0,0,0-0.1c0,0,0,0,0-0.1c-0.6-0.9-1.1-1.8-1.7-2.7
										c-0.6-0.9-1.2-1.7-1.9-2.4c-0.7-0.8-1.3-1.5-2-2.2s-1.4-1.3-2.2-1.9c-0.9-0.7-1.7-1.3-2.6-1.8s-1.8-1-2.7-1.3
										c-0.9-0.4-1.8-0.6-2.7-0.8c-0.9-0.2-1.8-0.3-2.8-0.3c-0.1,0-0.2,0-0.4,0c-0.1,0-0.2,0-0.4,0c-0.1,0-0.2,0-0.4,0
										C18,7.5,17.8,7.5,17.7,7.5"/>
									<path class="st3" d="M33.3,33.1L33.3,33.1L33.3,33.1 M33.7,30.5c-0.1,0-0.1,0-0.2,0c-0.1,0-0.1,0-0.2,0c0,0-0.1,0-0.1,0.1
										l-0.1,0.1c-0.1,0.1-0.1,0.1-0.2,0.2c0,0.1-0.1,0.1-0.1,0.2s-0.1,0.1-0.1,0.2s0,0.1-0.1,0.1c0,0.1-0.1,0.2-0.1,0.3
										c0,0.1-0.1,0.2-0.1,0.3c0,0.1-0.1,0.2-0.1,0.3s-0.1,0.2-0.1,0.3c0,0.2-0.1,0.4-0.1,0.7c0,0.2-0.1,0.5-0.1,0.8
										s-0.1,0.6-0.1,0.9c0,0.3-0.1,0.6-0.1,1c-0.1,1.2-0.3,2.6-0.4,4.1s-0.3,3.1-0.4,4.8s-0.3,3.4-0.4,5.1
										c-0.1,1.7-0.2,3.4-0.4,5c-0.1,0.8-0.1,1.6-0.2,2.3c-0.1,0.8-0.1,1.5-0.2,2.2s-0.1,1.3-0.2,2c-0.1,0.6-0.1,1.2-0.2,1.7
										c0,0,0,0,0,0.1s0,0,0,0.1c0,0,0,0,0,0.1c0,0,0,0,0,0.1c-0.2-0.6-0.4-1.3-0.7-2c-0.2-0.7-0.5-1.4-0.7-2.2
										c-0.3-0.8-0.5-1.5-0.8-2.3s-0.5-1.5-0.8-2.3c-0.1-0.4-0.3-0.8-0.4-1.2s-0.3-0.8-0.4-1.1c-0.1-0.4-0.2-0.7-0.4-1
										c-0.1-0.3-0.2-0.6-0.3-0.9c0.2-0.6,0.1-0.7,0.1-0.8c-0.1-0.1-0.1-0.3-0.2-0.4c-0.1-0.1-0.1-0.2-0.2-0.3s-0.1-0.2-0.2-0.3
										c0-0.1-0.1-0.1-0.1-0.2c0-0.1-0.1-0.1-0.1-0.2c0-0.1-0.1-0.1-0.1-0.2c0-0.1-0.1-0.1-0.1-0.2c0,0,0-0.1-0.1-0.1l-0.1-0.1
										l-0.1-0.1l-0.1-0.1l-0.1-0.1c0,0-0.1,0-0.1-0.1c-0.1,0-0.1,0-0.2,0s-0.1,0-0.2,0s-0.2,0-0.2,0c-0.1,0-0.1,0-0.2,0.1
										c-0.1,0-0.1,0.1-0.2,0.1s-0.1,0.1-0.1,0.1c-0.1,0.1-0.1,0.2-0.2,0.2C22,48,22,48.1,21.9,48.1c0,0.1-0.1,0.2-0.1,0.2
										c0,0.1-0.1,0.2-0.1,0.3c-0.1,0.1-0.1,0.3-0.2,0.5s-0.1,0.3-0.2,0.5s-0.1,0.3-0.2,0.5s-0.1,0.4-0.2,0.5
										c-0.1,0.3-0.2,0.6-0.2,0.8c-0.1,0.3-0.2,0.6-0.3,0.8c-0.1,0.3-0.2,0.5-0.3,0.8c-0.1,0.2-0.2,0.5-0.3,0.7
										c-0.1,0.1-0.1,0.2-0.2,0.3s-0.1,0.2-0.2,0.3s-0.1,0.2-0.2,0.2c-0.1,0.1-0.1,0.1-0.2,0.2c0.1,0.2,0,0.3,0,0.3
										c-0.1,0-0.1,0.1-0.2,0.1s-0.2,0-0.2,0.1c-0.1,0-0.2,0-0.3,0H8.4H1.8c-0.1,0-0.3,0-0.4,0.1s-0.2,0.2-0.3,0.3
										C1.1,55.7,1,55.8,1,56s0,0.3,0,0.5s0.1,0.4,0.1,0.5c0.1,0.2,0.2,0.3,0.3,0.4c0.1,0.1,0.2,0.2,0.4,0.3
										c0.1,0.1,0.3,0.1,0.4,0.1L10,58l8.6,0.1c0.1,0,0.3,0,0.4,0s0.3,0,0.4-0.1c0.1,0,0.3-0.1,0.4-0.1c0.1-0.1,0.2-0.1,0.4-0.2
										c0.2-0.1,0.4-0.3,0.6-0.4c0.2-0.2,0.3-0.3,0.5-0.5c0.1-0.2,0.3-0.4,0.4-0.6c0.1-0.2,0.2-0.4,0.4-0.6c0.2-0.3,0.3-0.7,0.5-1
										c0.1-0.3,0.3-0.7,0.4-1s0.2-0.7,0.3-1c0.1-0.3,0.2-0.6,0.3-0.9l0,0l0,0l0,0l0,0v0.1v0.1V52v0.1c0.2,0.6,0.5,1.3,0.7,2
										c0.3,0.7,0.5,1.5,0.8,2.4c0.3,0.8,0.6,1.7,0.8,2.5c0.3,0.8,0.6,1.7,0.8,2.5c0.1,0.4,0.3,0.8,0.4,1.2s0.3,0.7,0.4,1.1
										s0.2,0.7,0.4,1c0.1,0.3,0.2,0.6,0.3,0.9c0.1,0.1,0.1,0.3,0.2,0.4s0.1,0.3,0.2,0.4s0.1,0.2,0.2,0.3c0.1,0.1,0.1,0.2,0.2,0.3
										c0,0.1,0.1,0.1,0.1,0.2s0.1,0.1,0.1,0.2s0.1,0.1,0.1,0.2s0.1,0.1,0.1,0.2c0,0,0,0.1,0.1,0.1s0.1,0.1,0.1,0.1l0.1,0.1
										l0.1,0.1l0.1,0.1c0,0,0.1,0.1,0.2,0.1s0.1,0,0.2,0.1c0.1,0,0.1,0,0.2,0s0.2,0,0.2,0c0.1,0,0.1,0,0.2-0.1
										c0.1,0,0.1-0.1,0.1-0.1l0.1-0.1c0.1-0.1,0.1-0.1,0.1-0.2s0.1-0.1,0.1-0.2c0,0,0-0.1,0.1-0.1v-0.1c0-0.1,0.1-0.2,0.1-0.3
										c0-0.1,0-0.2,0.1-0.3c0-0.1,0-0.2,0.1-0.3c0-0.1,0-0.2,0.1-0.3c0-0.2,0.1-0.4,0.1-0.6s0.1-0.5,0.1-0.8s0.1-0.6,0.1-0.8
										c0-0.3,0.1-0.6,0.1-0.9c0.1-1.2,0.2-2.5,0.3-4s0.2-3,0.4-4.7c0.1-1.6,0.2-3.3,0.4-5c0.1-1.7,0.3-3.4,0.4-5
										c0.1-0.8,0.1-1.6,0.2-2.4c0.1-0.8,0.1-1.5,0.2-2.2c0.1-0.7,0.1-1.4,0.2-2c0.1-0.6,0.1-1.2,0.2-1.7v-0.1v-0.1v-0.1V36
										c0.2,0.6,0.5,1.3,0.7,2.1c0.3,0.8,0.6,1.7,0.9,2.6c0.3,0.9,0.6,1.9,1,3c0.3,1.1,0.7,2.2,1.1,3.3c0.6,1.9,1.2,3.9,1.9,5.9
										c0.6,2,1.3,4.1,1.9,6.2c0.6,2.1,1.3,4.2,1.9,6.2c0.6,2,1.2,4,1.8,5.8c0.3,0.9,0.6,1.8,0.8,2.7c0.3,0.9,0.5,1.7,0.8,2.5
										s0.5,1.5,0.7,2.2s0.4,1.3,0.6,1.9c0.1,0.3,0.2,0.6,0.3,0.8c0.1,0.3,0.2,0.5,0.3,0.7s0.2,0.5,0.3,0.7s0.2,0.4,0.2,0.6
										c0,0.1,0.1,0.2,0.1,0.3c0,0.1,0.1,0.2,0.1,0.2c0,0.1,0.1,0.1,0.1,0.2s0.1,0.1,0.1,0.2c0,0,0,0.1,0.1,0.1c0,0,0,0.1,0.1,0.1
										l0.1,0.1l0.1,0.1c0,0,0,0,0.1,0.1c0,0,0,0.1,0.1,0.1l0.1,0.1l0.1,0.1L51,85c0,0,0.1,0.1,0.2,0.1c0.1,0,0.1,0,0.2,0.1
										c0.1,0,0.1,0,0.2,0c0.1,0,0.1,0,0.2,0c0.1,0,0.1,0,0.2,0c0.1,0,0.1,0,0.1-0.1l0.1-0.1c0.1-0.1,0.1-0.1,0.2-0.2
										c0-0.1,0.1-0.1,0.1-0.2s0.1-0.1,0.1-0.1s0-0.1,0.1-0.1c0-0.1,0.1-0.2,0.1-0.3c0-0.1,0.1-0.2,0.1-0.3c0-0.1,0-0.2,0.1-0.3
										c0-0.1,0-0.2,0.1-0.3c0-0.2,0.1-0.4,0.1-0.7c0-0.2,0.1-0.5,0.1-0.8s0.1-0.6,0.1-0.9s0.1-0.6,0.1-0.9c0.1-1.2,0.3-2.5,0.4-4
										c0.1-1.5,0.3-3,0.4-4.7c0.1-1.6,0.3-3.3,0.4-5c0.1-1.7,0.3-3.4,0.4-5c0.1-0.8,0.2-1.6,0.2-2.4c0.1-0.8,0.2-1.5,0.2-2.2
										c0.1-0.7,0.2-1.4,0.2-2c0.1-0.6,0.2-1.2,0.2-1.7c0-0.1,0-0.2,0-0.3s0-0.2,0-0.3s0-0.2,0-0.3s0-0.2,0-0.3
										c0.1,0.3,0.2,0.6,0.3,0.9c0.1,0.3,0.2,0.6,0.4,1c0.1,0.3,0.2,0.7,0.4,1.1c0.1,0.4,0.2,0.8,0.4,1.2c0.2,0.6,0.4,1.3,0.6,1.9
										c0.2,0.7,0.4,1.3,0.6,2c0.2,0.7,0.4,1.3,0.6,1.9c0.2,0.6,0.4,1.2,0.6,1.8c0.1,0.3,0.2,0.6,0.3,0.8c0.1,0.3,0.2,0.5,0.3,0.8
										c0.1,0.2,0.2,0.5,0.3,0.7s0.2,0.4,0.3,0.6c0,0.1,0.1,0.2,0.1,0.3c0,0.1,0.1,0.2,0.1,0.3c0,0.1,0.1,0.2,0.1,0.3
										c0.1,0.1,0.1,0.2,0.2,0.3l0.1,0.1l0.1,0.1l0.1,0.1l0.1,0.1c0.1,0,0.1,0.1,0.2,0.1c0.1,0,0.1,0.1,0.2,0.1
										c0.1,0,0.2,0.1,0.2,0.1c0.1,0,0.2,0,0.3,0s0.2,0,0.3,0s0.2,0,0.2-0.1c0.1,0,0.1-0.1,0.2-0.1c0.1,0,0.1-0.1,0.2-0.1l0.1-0.1
										c0,0,0.1-0.1,0.1-0.2s0.1-0.1,0.1-0.2s0.1-0.1,0.1-0.2s0.1-0.2,0.1-0.3c0-0.1,0.1-0.2,0.1-0.3c0-0.1,0.1-0.2,0.1-0.3
										c0-0.1,0.1-0.2,0.1-0.3c0-0.2,0.1-0.4,0.1-0.6s0.1-0.4,0.1-0.6s0.1-0.4,0.1-0.6s0.1-0.4,0.1-0.6c0.1-0.3,0.1-0.7,0.2-1
										s0.2-0.6,0.3-1c0.1-0.3,0.2-0.6,0.3-0.9c0.1-0.3,0.2-0.5,0.3-0.8c0.1-0.1,0.1-0.2,0.2-0.3s0.1-0.2,0.2-0.3s0.1-0.2,0.2-0.2
										c0.1-0.1,0.1-0.1,0.2-0.2c0.1-0.1,0.1-0.1,0.2-0.1s0.2-0.1,0.2-0.1c0.1,0,0.2,0,0.3-0.1c0.1,0,0.2,0,0.3,0l10.3,0.1
										l13.8,0.1c0.2,0,0.4,0,0.5-0.1c0.2-0.1,0.3-0.2,0.4-0.3S93,58.2,93,58s0.1-0.4,0-0.6c0-0.2-0.1-0.4-0.2-0.6
										c-0.1-0.2-0.2-0.4-0.3-0.5C92.4,56.2,92.2,56,92,56c-0.2-0.1-0.3-0.1-0.5-0.1H79.3H67.4c-0.2,0-0.4,0-0.5,0
										c-0.2,0-0.3,0.1-0.5,0.1s-0.3,0.1-0.5,0.2c-0.2,0.1-0.3,0.2-0.4,0.2c-0.2,0.2-0.5,0.3-0.7,0.5s-0.4,0.4-0.6,0.7
										c-0.2,0.2-0.3,0.5-0.5,0.7c-0.1,0.3-0.3,0.5-0.4,0.8c-0.2,0.4-0.3,0.8-0.4,1.2c-0.1,0.4-0.2,0.8-0.3,1.3
										c-0.1,0.4-0.2,0.8-0.3,1.2s-0.1,0.8-0.2,1.1c-0.1-0.3-0.2-0.5-0.3-0.8s-0.2-0.6-0.3-0.9c-0.1-0.3-0.2-0.7-0.3-1
										c-0.1-0.4-0.2-0.7-0.3-1.1c-0.2-0.6-0.4-1.3-0.6-2c-0.2-0.7-0.4-1.3-0.6-2c-0.2-0.7-0.4-1.3-0.6-1.9
										c-0.2-0.6-0.4-1.2-0.6-1.8c-0.1-0.3-0.2-0.6-0.3-0.8c-0.1-0.3-0.2-0.5-0.3-0.8c-0.1-0.2-0.2-0.5-0.3-0.7s-0.2-0.4-0.3-0.6
										c-0.1-0.1-0.1-0.2-0.2-0.3C57,49.1,57,49,56.9,48.9s-0.1-0.2-0.2-0.3c-0.1-0.1-0.1-0.2-0.2-0.3l-0.1-0.1l-0.1-0.1L56.2,48
										c0,0-0.1-0.1-0.2-0.1c-0.1,0-0.1-0.1-0.2-0.1c-0.1,0-0.1-0.1-0.2-0.1c-0.1,0-0.1,0-0.2-0.1c-0.1,0-0.1,0-0.2,0l0,0l0,0l0,0
										l0,0c-0.1,0-0.1,0-0.2,0c-0.1,0-0.1,0-0.1,0s-0.1,0-0.1,0.1c0,0-0.1,0-0.1,0.1c-0.1,0-0.1,0.1-0.2,0.1
										c-0.1,0-0.1,0.1-0.1,0.2c0,0.1-0.1,0.1-0.1,0.2c0,0.1-0.1,0.1-0.1,0.2C54,47.9,54,48,54,48.1s-0.1,0.2-0.1,0.3
										s-0.1,0.2-0.1,0.3s-0.1,0.2-0.1,0.3c-0.1,0.2-0.1,0.4-0.2,0.7c-0.1,0.2-0.1,0.5-0.1,0.8s-0.1,0.6-0.1,0.9
										c0,0.3-0.1,0.6-0.1,1c-0.2,1.2-0.3,2.6-0.5,4.1s-0.3,3.1-0.4,4.8c-0.1,1.7-0.3,3.4-0.4,5.1c-0.1,1.7-0.3,3.4-0.4,5
										c-0.1,0.8-0.1,1.6-0.2,2.3c-0.1,0.7-0.1,1.5-0.2,2.2c-0.1,0.7-0.1,1.3-0.2,1.9c-0.1,0.6-0.1,1.2-0.2,1.7
										c-0.2-0.6-0.4-1.2-0.7-1.9c-0.2-0.7-0.5-1.5-0.8-2.3s-0.5-1.7-0.8-2.6s-0.6-1.9-0.9-2.8c-0.6-1.9-1.2-3.9-1.9-6
										c-0.6-2.1-1.3-4.2-2-6.4c-0.7-2.1-1.3-4.3-2-6.4c-0.6-2.1-1.3-4.1-1.9-6c-0.3-1-0.6-1.9-0.9-2.8c-0.3-0.9-0.6-1.7-0.8-2.5
										c-0.3-0.8-0.5-1.6-0.8-2.3c-0.2-0.7-0.5-1.4-0.7-2c-0.1-0.3-0.2-0.6-0.3-0.9c-0.1-0.3-0.2-0.5-0.3-0.8
										c-0.1-0.2-0.2-0.5-0.3-0.7s-0.2-0.4-0.3-0.6c0-0.1-0.1-0.2-0.1-0.3S35.1,32,35.1,32c0-0.1-0.1-0.2-0.1-0.2
										c0-0.1-0.1-0.1-0.1-0.2c0,0,0-0.1-0.1-0.1l-0.1-0.1l-0.1-0.1l-0.1-0.1c0,0,0,0-0.1-0.1c0,0-0.1,0-0.1-0.1
										c0,0-0.1,0-0.1-0.1c0,0-0.1,0-0.1-0.1c0,0-0.1,0-0.1-0.1c0,0-0.1,0-0.1-0.1C33.9,30.6,33.8,30.6,33.7,30.5
										C33.8,30.5,33.8,30.5,33.7,30.5"/>
								</g>
							</g>
						</g>
					</g>
				</g>
			</g>
		</g>
	</g>
</g>
<g class="st0">
	<path class="st4" d="M153,19.5c0.6,0.6,0.8,1.3,0.8,2.1V75c0,0.8-0.3,1.5-0.8,2.1c-0.6,0.6-1.2,0.9-2.1,0.9c-0.9,0-1.6-0.3-2.2-0.9
		c-0.6-0.6-0.9-1.3-0.9-2.1V32l-21.1,43.2c-0.6,1-1.5,1.4-2.6,1.4c-1.3,0-2.2-0.6-2.7-1.8l-21.1-42.1V75c0,0.8-0.3,1.5-0.8,2.1
		C99,77.7,98.3,78,97.4,78c-0.8,0-1.5-0.3-2.1-0.9c-0.6-0.6-0.9-1.3-0.9-2.1V21.6c0-0.9,0.3-1.6,0.9-2.1c0.6-0.6,1.3-0.8,2.1-0.8
		c1.2,0,2.1,0.5,2.7,1.5l24.3,48.3l23.9-48.3c0.6-1,1.5-1.5,2.7-1.5C151.8,18.6,152.4,18.9,153,19.5z"/>
	<path class="st4" d="M195.9,38.7c2.9,1.7,5.1,4.2,6.7,7.3c1.6,3.1,2.4,6.6,2.4,10.6c0,0.8-0.3,1.5-0.8,1.9c-0.5,0.5-1.2,0.7-2,0.7
		h-30.7c0.4,4.2,2,7.5,4.9,10.1c2.8,2.6,6.4,3.9,10.6,3.9c1.8,0,3.7-0.3,5.5-1c1.8-0.6,3.3-1.4,4.4-2.4c0.7-0.5,1.3-0.8,2.1-0.8
		c0.6,0,1.1,0.2,1.7,0.6c0.7,0.6,1,1.3,1,2.1c0,0.7-0.3,1.2-0.8,1.7c-1.7,1.4-3.8,2.6-6.4,3.5c-2.6,0.9-5.1,1.4-7.4,1.4
		c-4.1,0-7.7-0.9-10.9-2.7c-3.2-1.8-5.7-4.3-7.5-7.5c-1.8-3.2-2.7-6.9-2.7-10.9c0-4.1,0.8-7.8,2.5-11c1.7-3.2,4.1-5.7,7.1-7.5
		c3-1.8,6.4-2.7,10.3-2.7C189.7,36,193,36.9,195.9,38.7z M176.4,44.9c-2.5,2.4-4.1,5.5-4.6,9.4h27.8c-0.4-3.9-1.8-7-4.3-9.4
		c-2.4-2.4-5.5-3.6-9.3-3.6C182.1,41.3,178.9,42.5,176.4,44.9z"/>
	<path class="st4" d="M253.5,39.3v17.9c0,4-0.9,7.6-2.8,10.8c-1.8,3.2-4.4,5.8-7.6,7.6c-3.2,1.8-6.8,2.8-10.8,2.8
		c-4,0-7.5-0.9-10.8-2.8s-5.8-4.4-7.6-7.6c-1.8-3.2-2.8-6.8-2.8-10.8s0.9-7.5,2.7-10.8c1.8-3.2,4.3-5.8,7.4-7.6s6.6-2.8,10.5-2.8
		c3.3,0,6.3,0.7,9,2.1c2.7,1.4,5,3.3,6.8,5.7V21.6c0-0.9,0.3-1.6,0.8-2.1s1.3-0.8,2.1-0.8c0.9,0,1.6,0.3,2.1,0.8
		c0.5,0.6,0.8,1.3,0.8,2.1v17C253.4,38.8,253.5,39,253.5,39.3z M240.2,71c2.3-1.4,4.2-3.3,5.5-5.7c1.3-2.4,2-5.1,2-8.1
		c0-0.9,0-1.5-0.1-1.9c-0.1-0.1-0.1-0.2-0.1-0.4c-0.5-4-2.2-7.2-5-9.7c-2.8-2.5-6.2-3.8-10.2-3.8c-2.9,0-5.5,0.7-7.9,2.1
		c-2.4,1.4-4.2,3.3-5.5,5.7c-1.3,2.4-2,5.1-2,8.1c0,3,0.7,5.7,2,8.1c1.3,2.4,3.2,4.3,5.5,5.7c2.4,1.4,5,2.1,7.9,2.1
		C235.2,73.1,237.8,72.4,240.2,71z"/>
	<path class="st4" d="M268.3,27.3c-0.8-0.8-1.2-1.8-1.2-3c0-1.2,0.4-2.2,1.2-3c0.8-0.8,1.8-1.1,3-1.1c1.1,0,2.1,0.4,2.9,1.1
		c0.8,0.8,1.2,1.7,1.2,3c0,1.2-0.4,2.2-1.2,3c-0.8,0.8-1.8,1.2-3,1.2C270.1,28.5,269.1,28.1,268.3,27.3z M269.2,77.2
		c-0.6-0.6-0.8-1.3-0.8-2.1V39.4c0-0.9,0.3-1.6,0.8-2.1c0.6-0.6,1.3-0.8,2.1-0.8c0.9,0,1.6,0.3,2.1,0.8c0.5,0.6,0.8,1.3,0.8,2.1V75
		c0,0.9-0.3,1.6-0.8,2.1c-0.5,0.6-1.2,0.8-2.1,0.8C270.5,78,269.8,77.7,269.2,77.2z"/>
	<path class="st4" d="M312.9,36.8c1.2,0.6,1.9,1.3,1.9,2.4c0,0.3,0,0.5-0.1,0.7c-0.2,0.7-0.5,1.2-1,1.4c-0.4,0.3-1,0.4-1.8,0.4
		c-0.5,0-1.2,0-2.4-0.2c-0.4,0-1-0.1-1.8-0.1c-3.8,0-6.9,1-9.3,3c-2.4,2-3.6,4.7-3.6,7.9v22.7c0,0.9-0.3,1.6-0.8,2.1
		c-0.5,0.5-1.2,0.8-2.1,0.8s-1.6-0.3-2.1-0.8c-0.5-0.5-0.8-1.2-0.8-2.1V39.3c0-0.9,0.3-1.6,0.8-2.1c0.5-0.5,1.2-0.8,2.1-0.8
		s1.6,0.3,2.1,0.8c0.5,0.5,0.8,1.2,0.8,2.1v3.3c1.5-2.1,3.3-3.8,5.6-4.9c2.3-1.2,4.7-1.7,7.4-1.7C310,36,311.7,36.3,312.9,36.8z"/>
	<path class="st4" d="M347.6,38.7c2.9,1.7,5.1,4.2,6.7,7.3c1.6,3.1,2.4,6.6,2.4,10.6c0,0.8-0.3,1.5-0.8,1.9c-0.5,0.5-1.2,0.7-2,0.7
		h-30.7c0.4,4.2,2,7.5,4.9,10.1c2.8,2.6,6.4,3.9,10.6,3.9c1.8,0,3.7-0.3,5.5-1c1.8-0.6,3.3-1.4,4.4-2.4c0.7-0.5,1.3-0.8,2.1-0.8
		c0.6,0,1.1,0.2,1.7,0.6c0.7,0.6,1,1.3,1,2.1c0,0.7-0.3,1.2-0.8,1.7c-1.7,1.4-3.8,2.6-6.4,3.5c-2.6,0.9-5.1,1.4-7.4,1.4
		c-4.1,0-7.7-0.9-10.9-2.7c-3.2-1.8-5.7-4.3-7.5-7.5c-1.8-3.2-2.7-6.9-2.7-10.9c0-4.1,0.8-7.8,2.5-11c1.7-3.2,4.1-5.7,7.1-7.5
		c3-1.8,6.4-2.7,10.3-2.7C341.4,36,344.7,36.9,347.6,38.7z M328.1,44.9c-2.5,2.4-4.1,5.5-4.6,9.4h27.8c-0.4-3.9-1.8-7-4.3-9.4
		c-2.4-2.4-5.5-3.6-9.3-3.6C333.8,41.3,330.6,42.5,328.1,44.9z"/>
	<path class="st4" d="M373,75.6c-3.1-1.8-5.6-4.4-7.4-7.6c-1.8-3.2-2.7-6.8-2.7-10.8c0-4.1,0.9-7.7,2.6-10.9
		c1.7-3.2,4.1-5.7,7.1-7.6c3-1.8,6.5-2.7,10.3-2.7c6.3,0,11.5,2.4,15.4,7.3c0.4,0.5,0.6,1,0.6,1.6c0,0.8-0.4,1.5-1.3,2.1
		c-0.5,0.3-0.9,0.5-1.4,0.5c-0.8,0-1.5-0.4-2.2-1.1c-1.5-1.7-3.2-2.9-5-3.8c-1.8-0.8-3.9-1.3-6.1-1.3c-2.8,0-5.3,0.7-7.4,2
		c-2.2,1.3-3.9,3.2-5.1,5.7c-1.2,2.4-1.8,5.2-1.8,8.2c0,3,0.6,5.7,1.9,8.1c1.3,2.4,3,4.3,5.3,5.7s4.9,2.1,7.8,2.1
		c4.1,0,7.3-1.1,9.8-3.3c0.7-0.6,1.3-0.8,2.1-0.8c0.6,0,1.2,0.2,1.7,0.6c0.7,0.6,1.1,1.3,1.1,2.1c0,0.7-0.3,1.2-0.8,1.7
		c-3.6,3.4-8.3,5.1-13.8,5.1C379.7,78.4,376.2,77.5,373,75.6z"/>
</g>
<g>
	<path class="st4" d="M414.3,96.5c-7.1,0.1-14.1,0.3-21.2,0.4l-21.2,0.3l0.7-0.4l-5.7,10.8c-0.2,0.4-0.7,0.6-1.2,0.4
		c-0.1-0.1-0.3-0.2-0.3-0.3l0,0L358.8,97l0.8,0.5l-14.2,0.3c-0.3,0-0.7-0.1-0.9-0.4l0,0l-6.2-6.6l1.8,0.1l-7,6.7
		c-0.3,0.2-0.6,0.4-0.9,0.4l0,0l-29.5,0.3l1.3-0.6l-9.2,11.1c-0.6,0.7-1.7,0.8-2.4,0.2c-0.1-0.1-0.1-0.1-0.2-0.2l0,0l-10-11.1
		l1.3,0.6l-18,0.1l-18,0.1c-0.5,0-0.9-0.2-1.3-0.5l0,0l-10.5-9.4h2.6L226.9,98c-0.4,0.3-0.8,0.5-1.3,0.5L202,98.4
		c-7.9,0-15.8-0.1-23.7-0.2l1.3-0.6l-8.5,9.7l0,0c-0.6,0.7-1.7,0.8-2.4,0.2l0,0L158,97.7l1.1,0.4l-19.2-0.2l-19.2-0.3l0,0
		c-0.2,0-0.4-0.1-0.6-0.2l-10.8-6.8h1.1l-9.6,6.5l0,0c-0.1,0.1-0.3,0.1-0.4,0.1l-19.2-0.4c-6.4-0.1-12.8-0.3-19.2-0.4
		c6.4-0.2,12.8-0.3,19.2-0.4l19.2-0.4l-0.5,0.1l9.4-6.8c0.3-0.2,0.7-0.2,1.1,0l0,0l11,6.5l-0.6-0.2l19.2-0.3l19.2-0.2
		c0.4,0,0.8,0.1,1.1,0.4l0,0l10.8,9.7l-2.4,0.1l8.5-9.8c0.3-0.4,0.8-0.6,1.3-0.6l0,0c7.9,0,15.8-0.2,23.7-0.2l23.7-0.1l-1.3,0.5
		l11.3-9.4l0,0c0.8-0.6,1.9-0.6,2.6,0.1l10.5,9.4l-1.3-0.5l18,0.1l18,0.1l0,0c0.5,0,1,0.2,1.3,0.6l10,11.1h-2.6l9.3-11l0,0
		c0.3-0.4,0.8-0.6,1.3-0.6l29.5,0.3l-0.9,0.4l7-6.6l0,0c0.5-0.5,1.3-0.5,1.8,0.1l0,0l6.1,6.7l-0.9-0.4l14.2,0.3l0,0
		c0.3,0,0.6,0.2,0.8,0.5l6.3,10.8h-1.5l5.9-10.7l0,0c0.1-0.2,0.4-0.4,0.7-0.4l21.2,0.3C400.1,96.2,407.2,96.4,414.3,96.5z"/>
</g>
</svg>
