<?xml version="1.0" encoding="utf-8"?>
<!-- Generator: Adobe Illustrator 22.0.1, SVG Export Plug-In . SVG Version: 6.00 Build 0)  -->
<svg version="1.1" id="Capa_3" xmlns="http://www.w3.org/2000/svg" xmlns:xlink="http://www.w3.org/1999/xlink" x="0px" y="0px"
	 viewBox="0 0 417 113.5" style="enable-background:new 0 0 417 113.5;" xml:space="preserve">
<style type="text/css">
	.st0{enable-background:new    ;}
	.st1{clip-path:url(#SVGID_2_);}
	.st2{fill:#009BDB;}
	.st3{fill:#FFFFFF;}
	.st4{fill:#004C5D;}
	.st5{font-family:'Comfortaa-Regular';}
	.st6{font-size:76px;}
	.st7{letter-spacing:-1;}
</style>
<g>
	<g>
		<g class="st0">
			<defs>
				<polygon id="SVGID_1_" class="st0" points="5.9,96.1 -4.9,9.2 87.6,2.4 97.7,102.5 				"/>
			</defs>
			<clipPath id="SVGID_2_">
				<use xlink:href="#SVGID_1_"  style="overflow:visible;"/>
			</clipPath>
			<g class="st1">
				<g>
					<g>
						<g>
							<path class="st2" d="M34.2,35.4c0,0,0,0.1,0,0.1c0,0,0,0.1,0,0.1s0,0.1,0,0.1c0,0,0,0.1,0,0.1c-0.1,0.5-0.1,1.1-0.2,1.7
								c-0.1,0.6-0.1,1.3-0.2,2c-0.1,0.7-0.1,1.4-0.2,2.2c-0.1,0.8-0.1,1.6-0.2,2.4c-0.1,1.6-0.3,3.3-0.4,5c-0.1,1.7-0.2,3.4-0.4,5
								c-0.1,1.6-0.2,3.2-0.4,4.7c-0.1,1.5-0.2,2.8-0.3,4c0,0.3-0.1,0.6-0.1,0.9c0,0.3-0.1,0.6-0.1,0.8c0,0.3-0.1,0.5-0.1,0.8
								c0,0.2-0.1,0.4-0.1,0.6c0,0.1,0,0.2-0.1,0.3c0,0.1,0,0.2-0.1,0.3c0,0.1,0,0.2-0.1,0.3c0,0.1,0,0.2-0.1,0.3c0,0,0,0.1,0,0.1
								c0,0,0,0.1-0.1,0.1c0,0-0.1,0.1-0.1,0.2c0,0.1-0.1,0.1-0.1,0.2c0,0-0.1,0.1-0.1,0.1c0,0-0.1,0.1-0.1,0.1
								c-0.1,0-0.1,0.1-0.2,0.1c-0.1,0-0.1,0-0.2,0c-0.1,0-0.1,0-0.2,0c-0.1,0-0.1,0-0.2-0.1c-0.1,0-0.1,0-0.2-0.1
								c0,0-0.1-0.1-0.1-0.1c0,0-0.1-0.1-0.1-0.1c0,0-0.1-0.1-0.1-0.1c0,0-0.1-0.1-0.1-0.1s-0.1-0.1-0.1-0.1c0-0.1-0.1-0.1-0.1-0.2
								c0-0.1-0.1-0.1-0.1-0.2c0-0.1-0.1-0.1-0.1-0.2c0-0.1-0.1-0.1-0.1-0.2c-0.1-0.1-0.1-0.2-0.2-0.3c-0.1-0.1-0.1-0.2-0.2-0.3
								c-0.1-0.1-0.1-0.2-0.2-0.4c-0.1-0.1-0.1-0.3-0.2-0.4c-0.1-0.3-0.2-0.6-0.3-0.9c-0.1-0.3-0.2-0.7-0.4-1
								c-0.1-0.4-0.3-0.7-0.4-1.1c-0.1-0.4-0.3-0.8-0.4-1.2c-0.3-0.8-0.5-1.6-0.8-2.5c-0.3-0.8-0.6-1.7-0.8-2.5
								c-0.3-0.8-0.5-1.6-0.8-2.4c-0.3-0.7-0.5-1.4-0.7-2c0,0,0-0.1,0-0.1c0,0,0-0.1,0-0.1c0,0,0-0.1,0-0.1c0,0,0-0.1,0-0.1
								c0,0,0,0,0,0c0,0,0,0,0,0c0,0,0,0,0,0s0,0,0,0c-0.1,0.3-0.2,0.6-0.3,0.9c-0.1,0.3-0.2,0.6-0.3,1c-0.1,0.3-0.2,0.7-0.4,1
								c-0.1,0.3-0.3,0.7-0.5,1c-0.1,0.2-0.2,0.4-0.4,0.6c-0.1,0.2-0.3,0.4-0.4,0.6c-0.1,0.2-0.3,0.4-0.5,0.5
								c-0.2,0.2-0.4,0.3-0.6,0.4c-0.1,0.1-0.2,0.1-0.4,0.2c-0.1,0.1-0.2,0.1-0.4,0.1C19.3,58,19.2,58,19,58c-0.1,0-0.3,0-0.4,0
								L10,58c0.1,0.1,0.2,0.2,0.2,0.4c0.1,0.1,0.2,0.2,0.2,0.4c0.1,0.1,0.2,0.2,0.2,0.4c0.1,0.1,0.2,0.2,0.2,0.4
								c0.5,0.7,1,1.4,1.5,2.1c0.5,0.7,1,1.4,1.6,2c0.5,0.7,1.1,1.3,1.6,2c0.5,0.6,1.1,1.3,1.7,1.9c0.8,0.9,1.6,1.8,2.5,2.8
								c0.8,0.9,1.7,1.8,2.5,2.7c0.9,0.9,1.7,1.8,2.6,2.7c0.9,0.9,1.7,1.8,2.6,2.7c1.4,1.5,2.9,3,4.4,4.5c1.5,1.5,2.9,3.1,4.4,4.6
								c1.5,1.5,2.9,3.1,4.4,4.7c1.5,1.6,2.9,3.2,4.4,4.8c0.2,0.2,0.3,0.3,0.5,0.5c0.2,0.2,0.3,0.4,0.5,0.5c0.2,0.2,0.3,0.4,0.5,0.5
								c0.2,0.2,0.3,0.4,0.5,0.5c0,0,0-0.1,0.1-0.1c0,0,0,0,0.1-0.1c0,0,0,0,0.1-0.1c0,0,0,0,0-0.1c0.2-0.2,0.3-0.4,0.5-0.6
								c0.2-0.2,0.3-0.4,0.5-0.6c0.2-0.2,0.3-0.4,0.5-0.6c0.2-0.2,0.3-0.4,0.5-0.6c1-1.3,2.1-2.7,3.2-4c1.1-1.3,2.2-2.6,3.3-4
								c1.1-1.3,2.2-2.7,3.3-4c1.1-1.3,2.3-2.7,3.4-4c0.8-0.9,1.6-1.8,2.4-2.8c0.8-0.9,1.6-1.9,2.4-2.8c0.8-0.9,1.6-1.9,2.4-2.9
								c0.8-1,1.6-2,2.3-3c0.6-0.7,1.1-1.5,1.7-2.3c0.5-0.8,1.1-1.5,1.6-2.3c0.5-0.8,1-1.6,1.5-2.5c0.5-0.8,1-1.7,1.4-2.6
								c0-0.1,0.1-0.1,0.1-0.2c0-0.1,0.1-0.1,0.1-0.2c0-0.1,0.1-0.1,0.1-0.2c0-0.1,0.1-0.1,0.1-0.2l-10.3-0.1c-0.1,0-0.2,0-0.3,0
								c-0.1,0-0.2,0-0.3,0.1c-0.1,0-0.2,0.1-0.2,0.1c-0.1,0-0.2,0.1-0.2,0.1c-0.1,0.1-0.1,0.1-0.2,0.2c-0.1,0.1-0.1,0.1-0.2,0.2
								c-0.1,0.1-0.1,0.2-0.2,0.3c-0.1,0.1-0.1,0.2-0.2,0.3c-0.1,0.2-0.2,0.5-0.3,0.8c-0.1,0.3-0.2,0.6-0.3,0.9
								c-0.1,0.3-0.2,0.6-0.3,1c-0.1,0.3-0.2,0.7-0.2,1c0,0.2-0.1,0.4-0.1,0.6c0,0.2-0.1,0.4-0.1,0.6c0,0.2-0.1,0.4-0.1,0.6
								c0,0.2-0.1,0.4-0.1,0.6c0,0.1-0.1,0.2-0.1,0.3c0,0.1-0.1,0.2-0.1,0.3c0,0.1-0.1,0.2-0.1,0.3c0,0.1-0.1,0.2-0.1,0.3
								c0,0.1-0.1,0.1-0.1,0.2c0,0.1-0.1,0.1-0.1,0.2c0,0.1-0.1,0.1-0.1,0.2c0,0-0.1,0.1-0.1,0.1c-0.1,0-0.1,0.1-0.2,0.1
								c-0.1,0-0.1,0.1-0.2,0.1c-0.1,0-0.2,0.1-0.2,0.1c-0.1,0-0.2,0-0.3,0c-0.1,0-0.2,0-0.3,0c-0.1,0-0.2-0.1-0.2-0.1
								c-0.1,0-0.1-0.1-0.2-0.1c-0.1,0-0.1-0.1-0.2-0.1c-0.1,0-0.1-0.1-0.1-0.1c0,0-0.1-0.1-0.1-0.1c0,0-0.1-0.1-0.1-0.1
								s-0.1-0.1-0.1-0.1c-0.1-0.1-0.1-0.2-0.2-0.3c-0.1-0.1-0.1-0.2-0.1-0.3c0-0.1-0.1-0.2-0.1-0.3c0-0.1-0.1-0.2-0.1-0.3
								c-0.1-0.2-0.2-0.4-0.3-0.6c-0.1-0.2-0.2-0.5-0.3-0.7c-0.1-0.2-0.2-0.5-0.3-0.8c-0.1-0.3-0.2-0.5-0.3-0.8
								c-0.2-0.6-0.4-1.2-0.6-1.8c-0.2-0.6-0.4-1.3-0.6-1.9c-0.2-0.7-0.4-1.3-0.6-2c-0.2-0.7-0.4-1.3-0.6-1.9
								c-0.1-0.4-0.3-0.8-0.4-1.2c-0.1-0.4-0.2-0.7-0.4-1.1c-0.1-0.3-0.2-0.7-0.4-1c-0.1-0.3-0.2-0.6-0.3-0.9c0,0.1,0,0.2,0,0.3
								c0,0.1,0,0.2,0,0.3c0,0.1,0,0.2,0,0.3c0,0.1,0,0.2,0,0.3c-0.1,0.5-0.2,1.1-0.2,1.7c-0.1,0.6-0.2,1.3-0.2,2
								c-0.1,0.7-0.2,1.4-0.2,2.2c-0.1,0.8-0.2,1.6-0.2,2.4c-0.1,1.6-0.3,3.3-0.4,5c-0.1,1.7-0.3,3.4-0.4,5
								c-0.1,1.6-0.3,3.2-0.4,4.7c-0.1,1.5-0.3,2.8-0.4,4c0,0.3-0.1,0.6-0.1,0.9c0,0.3-0.1,0.6-0.1,0.9c0,0.3-0.1,0.5-0.1,0.8
								c0,0.2-0.1,0.5-0.1,0.7c0,0.1,0,0.2-0.1,0.3c0,0.1,0,0.2-0.1,0.3c0,0.1-0.1,0.2-0.1,0.3c0,0.1-0.1,0.2-0.1,0.3
								c0,0,0,0.1-0.1,0.1s0,0.1-0.1,0.1c0,0.1-0.1,0.1-0.1,0.2c0,0.1-0.1,0.1-0.2,0.2c0,0-0.1,0.1-0.1,0.1c0,0-0.1,0.1-0.1,0.1
								c-0.1,0-0.1,0-0.2,0c-0.1,0-0.1,0-0.2,0c-0.1,0-0.1,0-0.2,0c-0.1,0-0.1,0-0.2-0.1c-0.1,0-0.1,0-0.2-0.1c0,0-0.1-0.1-0.1-0.1
								c0,0-0.1-0.1-0.1-0.1s-0.1-0.1-0.1-0.1c0,0-0.1-0.1-0.1-0.1c0,0,0,0-0.1-0.1c0,0-0.1-0.1-0.1-0.1S50,83.9,50,83.9
								c0,0,0-0.1-0.1-0.1c0,0,0-0.1-0.1-0.1c0-0.1-0.1-0.1-0.1-0.2c0-0.1-0.1-0.1-0.1-0.2c0-0.1-0.1-0.2-0.1-0.2
								c0-0.1-0.1-0.2-0.1-0.3c-0.1-0.2-0.2-0.4-0.2-0.6c-0.1-0.2-0.2-0.4-0.3-0.7c-0.1-0.2-0.2-0.5-0.3-0.7
								c-0.1-0.3-0.2-0.5-0.3-0.8c-0.2-0.6-0.4-1.2-0.6-1.9c-0.2-0.7-0.5-1.4-0.7-2.2c-0.3-0.8-0.5-1.6-0.8-2.5
								c-0.3-0.9-0.6-1.8-0.8-2.7c-0.6-1.9-1.2-3.8-1.8-5.8c-0.6-2-1.3-4.1-1.9-6.2c-0.6-2.1-1.3-4.2-1.9-6.2c-0.6-2-1.3-4-1.9-5.9
								c-0.4-1.1-0.7-2.3-1.1-3.3c-0.3-1.1-0.7-2.1-1-3c-0.3-0.9-0.6-1.8-0.9-2.6C34.7,36.7,34.5,36,34.2,35.4 M33.3,33.1L33.3,33.1
								L33.3,33.1 M17.7,7.5c-0.4,0-0.7,0.1-1.1,0.1c-0.4,0.1-0.7,0.1-1,0.2c-0.3,0.1-0.7,0.2-1,0.3c-0.3,0.1-0.7,0.2-1,0.4
								c-1.1,0.4-2.2,1-3.1,1.6c-1,0.7-1.9,1.4-2.7,2.3c-0.8,0.9-1.6,1.9-2.2,3c-0.7,1.1-1.3,2.3-1.8,3.7c-0.4,1.1-0.7,2.1-1,3.3
								c-0.3,1.1-0.5,2.2-0.6,3.4C2,26.8,1.9,28,1.9,29.2c0,1.2,0.1,2.4,0.2,3.7c0.1,0.6,0.1,1.1,0.2,1.7c0.1,0.6,0.1,1.1,0.2,1.7
								c0.1,0.5,0.2,1.1,0.3,1.6C2.8,38.4,2.9,39,3,39.5c0.1,0.6,0.2,1.1,0.3,1.7c0.1,0.6,0.2,1.1,0.4,1.7C3.9,43.5,4,44,4.2,44.6
								c0.2,0.6,0.3,1.1,0.5,1.7c0.2,0.8,0.5,1.6,0.8,2.3c0.3,0.8,0.6,1.5,0.9,2.3c0.3,0.7,0.6,1.5,1,2.2c0.3,0.7,0.7,1.4,1.1,2.1
								l9.9,0c0.1,0,0.2,0,0.3,0c0.1,0,0.2,0,0.2-0.1c0.1,0,0.1-0.1,0.2-0.1c0.1,0,0.1-0.1,0.2-0.1c0.1-0.1,0.1-0.1,0.2-0.2
								c0.1-0.1,0.1-0.1,0.2-0.2c0.1-0.1,0.1-0.2,0.2-0.3c0.1-0.1,0.1-0.2,0.2-0.3c0.1-0.2,0.2-0.4,0.3-0.7c0.1-0.2,0.2-0.5,0.3-0.8
								c0.1-0.3,0.2-0.5,0.3-0.8c0.1-0.3,0.2-0.6,0.2-0.8c0.1-0.2,0.1-0.4,0.2-0.5c0.1-0.2,0.1-0.3,0.2-0.5c0.1-0.2,0.1-0.3,0.2-0.5
								c0.1-0.2,0.1-0.3,0.2-0.5c0-0.1,0.1-0.2,0.1-0.3c0-0.1,0.1-0.2,0.1-0.2c0-0.1,0.1-0.2,0.2-0.2c0.1-0.1,0.1-0.2,0.2-0.2
								c0,0,0.1-0.1,0.1-0.1c0.1,0,0.1-0.1,0.2-0.1c0.1,0,0.1-0.1,0.2-0.1c0.1,0,0.1,0,0.2,0c0.1,0,0.1,0,0.2,0c0.1,0,0.1,0,0.2,0
								c0.1,0,0.1,0,0.1,0.1c0,0,0.1,0.1,0.1,0.1c0,0,0.1,0.1,0.1,0.1c0,0,0.1,0.1,0.1,0.1C24,48,24,48,24,48c0,0,0.1,0.1,0.1,0.1
								c0,0.1,0.1,0.1,0.1,0.2c0,0.1,0.1,0.1,0.1,0.2c0,0.1,0.1,0.1,0.1,0.2c0,0.1,0.1,0.1,0.1,0.2c0.1,0.1,0.1,0.2,0.2,0.3
								c0.1,0.1,0.1,0.2,0.2,0.3c0.1,0.1,0.1,0.2,0.2,0.4c0.1,0.1,0.1,0.3,0.2,0.4c0.1,0.3,0.2,0.6,0.3,0.9c0.1,0.3,0.2,0.7,0.4,1
								c0.1,0.4,0.3,0.7,0.4,1.1c0.1,0.4,0.3,0.8,0.4,1.2c0.2,0.7,0.5,1.5,0.8,2.3c0.3,0.8,0.5,1.6,0.8,2.3c0.3,0.8,0.5,1.5,0.7,2.2
								c0.2,0.7,0.5,1.4,0.7,2c0,0,0,0,0-0.1c0,0,0,0,0-0.1c0,0,0,0,0-0.1s0,0,0-0.1c0.1-0.5,0.1-1.1,0.2-1.7c0.1-0.6,0.1-1.3,0.2-2
								c0.1-0.7,0.1-1.4,0.2-2.2c0.1-0.8,0.1-1.5,0.2-2.3c0.1-1.6,0.2-3.3,0.4-5c0.1-1.7,0.2-3.4,0.4-5.1c0.1-1.7,0.3-3.3,0.4-4.8
								c0.1-1.5,0.3-2.9,0.4-4.1c0-0.3,0.1-0.7,0.1-1c0-0.3,0.1-0.6,0.1-0.9c0-0.3,0.1-0.5,0.1-0.8c0-0.2,0.1-0.5,0.1-0.7
								c0-0.1,0.1-0.2,0.1-0.3c0-0.1,0.1-0.2,0.1-0.3c0-0.1,0.1-0.2,0.1-0.3c0-0.1,0.1-0.2,0.1-0.3c0,0,0-0.1,0.1-0.1
								c0-0.1,0.1-0.1,0.1-0.2c0-0.1,0.1-0.1,0.1-0.2c0-0.1,0.1-0.1,0.2-0.2c0,0,0.1-0.1,0.1-0.1c0,0,0.1,0,0.1-0.1c0,0,0.1,0,0.2,0
								c0.1,0,0.1,0,0.2,0c0.1,0,0.1,0,0.2,0c0.1,0,0.1,0,0.2,0c0,0,0.1,0,0.1,0.1c0,0,0.1,0,0.1,0.1c0,0,0.1,0,0.1,0.1
								c0,0,0.1,0,0.1,0.1c0,0,0.1,0,0.1,0.1c0,0,0,0,0.1,0.1c0,0,0.1,0.1,0.1,0.1c0,0,0.1,0.1,0.1,0.1c0,0,0.1,0.1,0.1,0.1
								c0,0,0,0.1,0.1,0.1c0,0.1,0.1,0.1,0.1,0.2c0,0.1,0.1,0.2,0.1,0.2c0,0.1,0.1,0.2,0.1,0.2s0.1,0.2,0.1,0.3
								c0.1,0.2,0.2,0.4,0.3,0.6c0.1,0.2,0.2,0.4,0.3,0.7c0.1,0.2,0.2,0.5,0.3,0.8c0.1,0.3,0.2,0.6,0.3,0.9c0.2,0.6,0.4,1.3,0.7,2
								c0.2,0.7,0.5,1.5,0.8,2.3c0.3,0.8,0.5,1.7,0.8,2.5c0.3,0.9,0.6,1.8,0.9,2.8c0.6,1.9,1.2,3.9,1.9,6c0.6,2.1,1.3,4.2,2,6.4
								c0.7,2.1,1.3,4.3,2,6.4c0.6,2.1,1.3,4.1,1.9,6c0.3,1,0.6,1.9,0.9,2.8c0.3,0.9,0.6,1.8,0.8,2.6c0.3,0.8,0.5,1.6,0.8,2.3
								c0.2,0.7,0.5,1.4,0.7,1.9c0.1-0.5,0.1-1.1,0.2-1.7c0.1-0.6,0.1-1.3,0.2-1.9c0.1-0.7,0.1-1.4,0.2-2.2c0.1-0.7,0.1-1.5,0.2-2.3
								c0.1-1.6,0.3-3.3,0.4-5c0.1-1.7,0.3-3.4,0.4-5.1c0.1-1.7,0.3-3.3,0.4-4.8c0.2-1.5,0.3-2.9,0.5-4.1c0-0.3,0.1-0.7,0.1-1
								c0-0.3,0.1-0.6,0.1-0.9c0-0.3,0.1-0.5,0.1-0.8c0.1-0.2,0.1-0.5,0.2-0.7c0-0.1,0.1-0.2,0.1-0.3c0-0.1,0.1-0.2,0.1-0.3
								c0-0.1,0.1-0.2,0.1-0.3c0-0.1,0.1-0.2,0.1-0.3c0-0.1,0.1-0.1,0.1-0.2c0-0.1,0.1-0.1,0.1-0.2c0-0.1,0.1-0.1,0.1-0.2
								c0.1,0,0.1-0.1,0.2-0.1c0,0,0.1,0,0.1-0.1c0,0,0.1,0,0.1-0.1c0,0,0.1,0,0.1,0c0.1,0,0.1,0,0.2,0c0,0,0,0,0,0c0,0,0,0,0,0
								s0,0,0,0c0,0,0,0,0,0c0.1,0,0.1,0,0.2,0c0.1,0,0.1,0,0.2,0.1c0.1,0,0.1,0.1,0.2,0.1c0.1,0,0.1,0.1,0.2,0.1
								c0.1,0,0.1,0.1,0.2,0.1c0,0,0.1,0.1,0.1,0.1c0,0,0.1,0.1,0.1,0.1c0,0,0.1,0.1,0.1,0.1c0.1,0.1,0.1,0.2,0.2,0.3
								c0.1,0.1,0.1,0.2,0.2,0.3c0.1,0.1,0.1,0.2,0.2,0.3c0.1,0.1,0.1,0.2,0.2,0.3c0.1,0.2,0.2,0.4,0.3,0.6c0.1,0.2,0.2,0.5,0.3,0.7
								c0.1,0.2,0.2,0.5,0.3,0.8c0.1,0.3,0.2,0.5,0.3,0.8c0.2,0.6,0.4,1.2,0.6,1.8c0.2,0.6,0.4,1.3,0.6,1.9c0.2,0.7,0.4,1.3,0.6,2
								c0.2,0.7,0.4,1.3,0.6,2c0.1,0.4,0.2,0.7,0.3,1.1c0.1,0.4,0.2,0.7,0.3,1c0.1,0.3,0.2,0.6,0.3,0.9c0.1,0.3,0.2,0.6,0.3,0.8
								c0.1-0.3,0.1-0.7,0.2-1.1c0.1-0.4,0.2-0.8,0.3-1.2c0.1-0.4,0.2-0.8,0.3-1.3c0.1-0.4,0.3-0.8,0.4-1.2c0.1-0.3,0.2-0.5,0.4-0.8
								c0.1-0.3,0.3-0.5,0.5-0.7c0.2-0.2,0.3-0.5,0.6-0.7c0.2-0.2,0.4-0.4,0.7-0.5c0.1-0.1,0.3-0.2,0.4-0.2c0.2-0.1,0.3-0.1,0.5-0.2
								c0.2,0,0.3-0.1,0.5-0.1c0.2,0,0.4,0,0.5,0l11.9,0c0.4-1.2,0.8-2.4,1.1-3.7c0.3-1.3,0.6-2.5,0.8-3.8c0.2-1.3,0.4-2.7,0.5-4
								c0.1-1.4,0.1-2.8,0.1-4.2c0-0.6,0-1.1,0-1.7c0-0.6,0-1.1-0.1-1.7c0-0.6-0.1-1.1-0.1-1.7c0-0.6-0.1-1.1-0.1-1.7
								c-0.1-0.6-0.1-1.3-0.2-1.9c-0.1-0.6-0.2-1.3-0.3-1.9c-0.1-0.6-0.2-1.3-0.4-1.9c-0.1-0.6-0.3-1.3-0.5-1.9
								c-0.4-1.6-1-3.1-1.6-4.5c-0.6-1.4-1.3-2.8-2-4.1c-0.8-1.3-1.6-2.5-2.5-3.6c-0.9-1.1-1.9-2.2-3-3.1c-0.9-0.8-1.9-1.6-2.9-2.2
								c-1-0.6-2-1.2-3-1.6c-1-0.4-2.1-0.8-3.1-1.1C61,5,59.9,4.8,58.8,4.7c-0.2,0-0.5,0-0.7,0c-0.2,0-0.5,0-0.7,0
								c-0.2,0-0.5,0-0.7,0c-0.2,0-0.5,0-0.7,0c-0.3,0-0.6,0.1-0.9,0.1c-0.3,0-0.6,0.1-0.9,0.1C54,5,53.7,5,53.4,5.1
								c-0.3,0.1-0.6,0.1-0.9,0.2c-0.9,0.2-1.7,0.6-2.5,0.9c-0.8,0.4-1.6,0.8-2.3,1.3c-0.7,0.5-1.4,1-2.1,1.6c-0.7,0.6-1.3,1.3-2,2
								c-0.6,0.7-1.2,1.4-1.7,2.2c-0.5,0.8-1,1.5-1.5,2.4c-0.5,0.8-0.9,1.7-1.3,2.6c-0.4,0.9-0.7,1.8-1.1,2.7c0,0,0,0.1,0,0.1
								c0,0,0,0.1,0,0.1c0,0,0,0.1,0,0.1c0,0,0,0.1,0,0.1l-0.1,0c0,0,0,0,0-0.1c0,0,0,0,0-0.1c0,0,0,0,0-0.1c0,0,0,0,0-0.1
								c-0.6-0.9-1.1-1.8-1.7-2.7c-0.6-0.9-1.2-1.7-1.9-2.4c-0.7-0.8-1.3-1.5-2-2.2c-0.7-0.7-1.4-1.3-2.2-1.9
								c-0.9-0.7-1.7-1.3-2.6-1.8c-0.9-0.5-1.8-1-2.7-1.3c-0.9-0.4-1.8-0.6-2.7-0.8c-0.9-0.2-1.8-0.3-2.8-0.3c-0.1,0-0.2,0-0.4,0
								c-0.1,0-0.2,0-0.4,0c-0.1,0-0.2,0-0.4,0C18,7.5,17.8,7.5,17.7,7.5"/>
							<path class="st3" d="M33.3,33.1L33.3,33.1L33.3,33.1 M33.7,30.5c-0.1,0-0.1,0-0.2,0c-0.1,0-0.1,0-0.2,0c0,0-0.1,0-0.1,0.1
								c0,0-0.1,0.1-0.1,0.1c-0.1,0.1-0.1,0.1-0.2,0.2c0,0.1-0.1,0.1-0.1,0.2c0,0.1-0.1,0.1-0.1,0.2c0,0.1,0,0.1-0.1,0.1
								c0,0.1-0.1,0.2-0.1,0.3c0,0.1-0.1,0.2-0.1,0.3c0,0.1-0.1,0.2-0.1,0.3c0,0.1-0.1,0.2-0.1,0.3c0,0.2-0.1,0.4-0.1,0.7
								c0,0.2-0.1,0.5-0.1,0.8c0,0.3-0.1,0.6-0.1,0.9c0,0.3-0.1,0.6-0.1,1c-0.1,1.2-0.3,2.6-0.4,4.1c-0.1,1.5-0.3,3.1-0.4,4.8
								c-0.1,1.7-0.3,3.4-0.4,5.1c-0.1,1.7-0.2,3.4-0.4,5c-0.1,0.8-0.1,1.6-0.2,2.3c-0.1,0.8-0.1,1.5-0.2,2.2
								c-0.1,0.7-0.1,1.3-0.2,2c-0.1,0.6-0.1,1.2-0.2,1.7c0,0,0,0,0,0.1s0,0,0,0.1c0,0,0,0,0,0.1c0,0,0,0,0,0.1
								c-0.2-0.6-0.4-1.3-0.7-2c-0.2-0.7-0.5-1.4-0.7-2.2c-0.3-0.8-0.5-1.5-0.8-2.3c-0.3-0.8-0.5-1.5-0.8-2.3
								c-0.1-0.4-0.3-0.8-0.4-1.2c-0.1-0.4-0.3-0.8-0.4-1.1c-0.1-0.4-0.2-0.7-0.4-1c-0.1-0.3-0.2-0.6-0.3-0.9
								C25.1,50,25,49.9,25,49.8c-0.1-0.1-0.1-0.3-0.2-0.4c-0.1-0.1-0.1-0.2-0.2-0.3c-0.1-0.1-0.1-0.2-0.2-0.3
								c0-0.1-0.1-0.1-0.1-0.2c0-0.1-0.1-0.1-0.1-0.2c0-0.1-0.1-0.1-0.1-0.2c0-0.1-0.1-0.1-0.1-0.2c0,0,0-0.1-0.1-0.1
								c0,0-0.1-0.1-0.1-0.1c0,0-0.1-0.1-0.1-0.1c0,0-0.1-0.1-0.1-0.1c0,0-0.1-0.1-0.1-0.1c0,0-0.1,0-0.1-0.1c-0.1,0-0.1,0-0.2,0
								c-0.1,0-0.1,0-0.2,0c-0.1,0-0.2,0-0.2,0c-0.1,0-0.1,0-0.2,0.1c-0.1,0-0.1,0.1-0.2,0.1c-0.1,0-0.1,0.1-0.1,0.1
								c-0.1,0.1-0.1,0.2-0.2,0.2c-0.1,0.1-0.1,0.2-0.2,0.2c0,0.1-0.1,0.2-0.1,0.2c0,0.1-0.1,0.2-0.1,0.3c-0.1,0.1-0.1,0.3-0.2,0.5
								c-0.1,0.2-0.1,0.3-0.2,0.5c-0.1,0.2-0.1,0.3-0.2,0.5c-0.1,0.2-0.1,0.4-0.2,0.5c-0.1,0.3-0.2,0.6-0.2,0.8
								c-0.1,0.3-0.2,0.6-0.3,0.8c-0.1,0.3-0.2,0.5-0.3,0.8c-0.1,0.2-0.2,0.5-0.3,0.7c-0.1,0.1-0.1,0.2-0.2,0.3
								c-0.1,0.1-0.1,0.2-0.2,0.3c-0.1,0.1-0.1,0.2-0.2,0.2c-0.1,0.1-0.1,0.1-0.2,0.2C19.1,54.9,19,55,19,55c-0.1,0-0.1,0.1-0.2,0.1
								c-0.1,0-0.2,0-0.2,0.1c-0.1,0-0.2,0-0.3,0l-9.9,0l-6.6,0c-0.1,0-0.3,0-0.4,0.1c-0.1,0.1-0.2,0.2-0.3,0.3
								C1.1,55.7,1,55.8,1,56c0,0.2,0,0.3,0,0.5c0,0.2,0.1,0.4,0.1,0.5c0.1,0.2,0.2,0.3,0.3,0.4c0.1,0.1,0.2,0.2,0.4,0.3
								c0.1,0.1,0.3,0.1,0.4,0.1L10,58l8.6,0.1c0.1,0,0.3,0,0.4,0c0.1,0,0.3,0,0.4-0.1c0.1,0,0.3-0.1,0.4-0.1
								c0.1-0.1,0.2-0.1,0.4-0.2c0.2-0.1,0.4-0.3,0.6-0.4c0.2-0.2,0.3-0.3,0.5-0.5c0.1-0.2,0.3-0.4,0.4-0.6c0.1-0.2,0.2-0.4,0.4-0.6
								c0.2-0.3,0.3-0.7,0.5-1c0.1-0.3,0.3-0.7,0.4-1c0.1-0.3,0.2-0.7,0.3-1c0.1-0.3,0.2-0.6,0.3-0.9c0,0,0,0,0,0s0,0,0,0
								c0,0,0,0,0,0c0,0,0,0,0,0c0,0,0,0.1,0,0.1c0,0,0,0.1,0,0.1c0,0,0,0.1,0,0.1c0,0,0,0.1,0,0.1c0.2,0.6,0.5,1.3,0.7,2
								c0.3,0.7,0.5,1.5,0.8,2.4c0.3,0.8,0.6,1.7,0.8,2.5c0.3,0.8,0.6,1.7,0.8,2.5c0.1,0.4,0.3,0.8,0.4,1.2c0.1,0.4,0.3,0.7,0.4,1.1
								c0.1,0.4,0.2,0.7,0.4,1c0.1,0.3,0.2,0.6,0.3,0.9c0.1,0.1,0.1,0.3,0.2,0.4c0.1,0.1,0.1,0.3,0.2,0.4c0.1,0.1,0.1,0.2,0.2,0.3
								c0.1,0.1,0.1,0.2,0.2,0.3c0,0.1,0.1,0.1,0.1,0.2c0,0.1,0.1,0.1,0.1,0.2c0,0.1,0.1,0.1,0.1,0.2c0,0.1,0.1,0.1,0.1,0.2
								c0,0,0,0.1,0.1,0.1s0.1,0.1,0.1,0.1c0,0,0.1,0.1,0.1,0.1c0,0,0.1,0.1,0.1,0.1c0,0,0.1,0.1,0.1,0.1c0,0,0.1,0.1,0.2,0.1
								c0.1,0,0.1,0,0.2,0.1c0.1,0,0.1,0,0.2,0c0.1,0,0.2,0,0.2,0c0.1,0,0.1,0,0.2-0.1c0.1,0,0.1-0.1,0.1-0.1c0,0,0.1-0.1,0.1-0.1
								c0.1-0.1,0.1-0.1,0.1-0.2c0-0.1,0.1-0.1,0.1-0.2c0,0,0-0.1,0.1-0.1c0,0,0-0.1,0-0.1c0-0.1,0.1-0.2,0.1-0.3
								c0-0.1,0-0.2,0.1-0.3c0-0.1,0-0.2,0.1-0.3c0-0.1,0-0.2,0.1-0.3c0-0.2,0.1-0.4,0.1-0.6c0-0.2,0.1-0.5,0.1-0.8
								c0-0.3,0.1-0.6,0.1-0.8c0-0.3,0.1-0.6,0.1-0.9c0.1-1.2,0.2-2.5,0.3-4c0.1-1.5,0.2-3,0.4-4.7c0.1-1.6,0.2-3.3,0.4-5
								c0.1-1.7,0.3-3.4,0.4-5c0.1-0.8,0.1-1.6,0.2-2.4c0.1-0.8,0.1-1.5,0.2-2.2c0.1-0.7,0.1-1.4,0.2-2c0.1-0.6,0.1-1.2,0.2-1.7
								c0,0,0-0.1,0-0.1c0,0,0-0.1,0-0.1s0-0.1,0-0.1c0,0,0-0.1,0-0.1c0.2,0.6,0.5,1.3,0.7,2.1c0.3,0.8,0.6,1.7,0.9,2.6
								c0.3,0.9,0.6,1.9,1,3c0.3,1.1,0.7,2.2,1.1,3.3c0.6,1.9,1.2,3.9,1.9,5.9c0.6,2,1.3,4.1,1.9,6.2c0.6,2.1,1.3,4.2,1.9,6.2
								c0.6,2,1.2,4,1.8,5.8c0.3,0.9,0.6,1.8,0.8,2.7c0.3,0.9,0.5,1.7,0.8,2.5c0.3,0.8,0.5,1.5,0.7,2.2c0.2,0.7,0.4,1.3,0.6,1.9
								c0.1,0.3,0.2,0.6,0.3,0.8c0.1,0.3,0.2,0.5,0.3,0.7c0.1,0.2,0.2,0.5,0.3,0.7c0.1,0.2,0.2,0.4,0.2,0.6c0,0.1,0.1,0.2,0.1,0.3
								c0,0.1,0.1,0.2,0.1,0.2c0,0.1,0.1,0.1,0.1,0.2c0,0.1,0.1,0.1,0.1,0.2c0,0,0,0.1,0.1,0.1c0,0,0,0.1,0.1,0.1
								c0,0,0.1,0.1,0.1,0.1s0.1,0.1,0.1,0.1c0,0,0,0,0.1,0.1c0,0,0,0.1,0.1,0.1c0,0,0.1,0.1,0.1,0.1s0.1,0.1,0.1,0.1
								c0,0,0.1,0.1,0.1,0.1c0,0,0.1,0.1,0.2,0.1c0.1,0,0.1,0,0.2,0.1c0.1,0,0.1,0,0.2,0c0.1,0,0.1,0,0.2,0c0.1,0,0.1,0,0.2,0
								c0.1,0,0.1,0,0.1-0.1c0,0,0.1-0.1,0.1-0.1c0.1-0.1,0.1-0.1,0.2-0.2c0-0.1,0.1-0.1,0.1-0.2c0-0.1,0.1-0.1,0.1-0.1
								s0-0.1,0.1-0.1c0-0.1,0.1-0.2,0.1-0.3c0-0.1,0.1-0.2,0.1-0.3c0-0.1,0-0.2,0.1-0.3c0-0.1,0-0.2,0.1-0.3c0-0.2,0.1-0.4,0.1-0.7
								c0-0.2,0.1-0.5,0.1-0.8c0-0.3,0.1-0.6,0.1-0.9c0-0.3,0.1-0.6,0.1-0.9c0.1-1.2,0.3-2.5,0.4-4c0.1-1.5,0.3-3,0.4-4.7
								c0.1-1.6,0.3-3.3,0.4-5c0.1-1.7,0.3-3.4,0.4-5c0.1-0.8,0.2-1.6,0.2-2.4c0.1-0.8,0.2-1.5,0.2-2.2c0.1-0.7,0.2-1.4,0.2-2
								c0.1-0.6,0.2-1.2,0.2-1.7c0-0.1,0-0.2,0-0.3c0-0.1,0-0.2,0-0.3c0-0.1,0-0.2,0-0.3c0-0.1,0-0.2,0-0.3c0.1,0.3,0.2,0.6,0.3,0.9
								c0.1,0.3,0.2,0.6,0.4,1c0.1,0.3,0.2,0.7,0.4,1.1c0.1,0.4,0.2,0.8,0.4,1.2c0.2,0.6,0.4,1.3,0.6,1.9c0.2,0.7,0.4,1.3,0.6,2
								c0.2,0.7,0.4,1.3,0.6,1.9c0.2,0.6,0.4,1.2,0.6,1.8c0.1,0.3,0.2,0.6,0.3,0.8c0.1,0.3,0.2,0.5,0.3,0.8c0.1,0.2,0.2,0.5,0.3,0.7
								c0.1,0.2,0.2,0.4,0.3,0.6c0,0.1,0.1,0.2,0.1,0.3c0,0.1,0.1,0.2,0.1,0.3c0,0.1,0.1,0.2,0.1,0.3c0.1,0.1,0.1,0.2,0.2,0.3
								c0,0,0.1,0.1,0.1,0.1s0.1,0.1,0.1,0.1c0,0,0.1,0.1,0.1,0.1c0,0,0.1,0.1,0.1,0.1c0.1,0,0.1,0.1,0.2,0.1c0.1,0,0.1,0.1,0.2,0.1
								c0.1,0,0.2,0.1,0.2,0.1c0.1,0,0.2,0,0.3,0c0.1,0,0.2,0,0.3,0c0.1,0,0.2,0,0.2-0.1c0.1,0,0.1-0.1,0.2-0.1
								c0.1,0,0.1-0.1,0.2-0.1c0,0,0.1-0.1,0.1-0.1c0,0,0.1-0.1,0.1-0.2c0-0.1,0.1-0.1,0.1-0.2c0-0.1,0.1-0.1,0.1-0.2
								c0-0.1,0.1-0.2,0.1-0.3c0-0.1,0.1-0.2,0.1-0.3c0-0.1,0.1-0.2,0.1-0.3c0-0.1,0.1-0.2,0.1-0.3c0-0.2,0.1-0.4,0.1-0.6
								c0-0.2,0.1-0.4,0.1-0.6c0-0.2,0.1-0.4,0.1-0.6c0-0.2,0.1-0.4,0.1-0.6c0.1-0.3,0.1-0.7,0.2-1c0.1-0.3,0.2-0.6,0.3-1
								c0.1-0.3,0.2-0.6,0.3-0.9c0.1-0.3,0.2-0.5,0.3-0.8c0.1-0.1,0.1-0.2,0.2-0.3c0.1-0.1,0.1-0.2,0.2-0.3c0.1-0.1,0.1-0.2,0.2-0.2
								c0.1-0.1,0.1-0.1,0.2-0.2c0.1-0.1,0.1-0.1,0.2-0.1c0.1,0,0.2-0.1,0.2-0.1c0.1,0,0.2,0,0.3-0.1c0.1,0,0.2,0,0.3,0l10.3,0.1
								l13.8,0.1c0.2,0,0.4,0,0.5-0.1c0.2-0.1,0.3-0.2,0.4-0.3c0.1-0.1,0.2-0.3,0.2-0.5c0-0.2,0.1-0.4,0-0.6c0-0.2-0.1-0.4-0.2-0.6
								c-0.1-0.2-0.2-0.4-0.3-0.5c-0.1-0.1-0.3-0.3-0.5-0.3c-0.2-0.1-0.3-0.1-0.5-0.1l-12.2,0l-11.9,0c-0.2,0-0.4,0-0.5,0
								c-0.2,0-0.3,0.1-0.5,0.1c-0.2,0-0.3,0.1-0.5,0.2c-0.2,0.1-0.3,0.2-0.4,0.2c-0.2,0.2-0.5,0.3-0.7,0.5
								c-0.2,0.2-0.4,0.4-0.6,0.7c-0.2,0.2-0.3,0.5-0.5,0.7c-0.1,0.3-0.3,0.5-0.4,0.8c-0.2,0.4-0.3,0.8-0.4,1.2
								c-0.1,0.4-0.2,0.8-0.3,1.3c-0.1,0.4-0.2,0.8-0.3,1.2c-0.1,0.4-0.1,0.8-0.2,1.1c-0.1-0.3-0.2-0.5-0.3-0.8
								c-0.1-0.3-0.2-0.6-0.3-0.9c-0.1-0.3-0.2-0.7-0.3-1c-0.1-0.4-0.2-0.7-0.3-1.1c-0.2-0.6-0.4-1.3-0.6-2c-0.2-0.7-0.4-1.3-0.6-2
								c-0.2-0.7-0.4-1.3-0.6-1.9c-0.2-0.6-0.4-1.2-0.6-1.8c-0.1-0.3-0.2-0.6-0.3-0.8c-0.1-0.3-0.2-0.5-0.3-0.8
								c-0.1-0.2-0.2-0.5-0.3-0.7c-0.1-0.2-0.2-0.4-0.3-0.6c-0.1-0.1-0.1-0.2-0.2-0.3c-0.1-0.1-0.1-0.2-0.2-0.3
								c-0.1-0.1-0.1-0.2-0.2-0.3c-0.1-0.1-0.1-0.2-0.2-0.3c0,0-0.1-0.1-0.1-0.1c0,0-0.1-0.1-0.1-0.1c0,0-0.1-0.1-0.1-0.1
								c0,0-0.1-0.1-0.2-0.1c-0.1,0-0.1-0.1-0.2-0.1c-0.1,0-0.1-0.1-0.2-0.1c-0.1,0-0.1,0-0.2-0.1c-0.1,0-0.1,0-0.2,0c0,0,0,0,0,0
								c0,0,0,0,0,0s0,0,0,0c0,0,0,0,0,0c-0.1,0-0.1,0-0.2,0c-0.1,0-0.1,0-0.1,0c0,0-0.1,0-0.1,0.1c0,0-0.1,0-0.1,0.1
								c-0.1,0-0.1,0.1-0.2,0.1c-0.1,0-0.1,0.1-0.1,0.2c0,0.1-0.1,0.1-0.1,0.2c0,0.1-0.1,0.1-0.1,0.2C54,47.9,54,48,54,48.1
								c0,0.1-0.1,0.2-0.1,0.3c0,0.1-0.1,0.2-0.1,0.3c0,0.1-0.1,0.2-0.1,0.3c-0.1,0.2-0.1,0.4-0.2,0.7c-0.1,0.2-0.1,0.5-0.1,0.8
								c0,0.3-0.1,0.6-0.1,0.9c0,0.3-0.1,0.6-0.1,1c-0.2,1.2-0.3,2.6-0.5,4.1c-0.2,1.5-0.3,3.1-0.4,4.8c-0.1,1.7-0.3,3.4-0.4,5.1
								c-0.1,1.7-0.3,3.4-0.4,5c-0.1,0.8-0.1,1.6-0.2,2.3c-0.1,0.7-0.1,1.5-0.2,2.2c-0.1,0.7-0.1,1.3-0.2,1.9
								c-0.1,0.6-0.1,1.2-0.2,1.7c-0.2-0.6-0.4-1.2-0.7-1.9c-0.2-0.7-0.5-1.5-0.8-2.3c-0.3-0.8-0.5-1.7-0.8-2.6
								c-0.3-0.9-0.6-1.9-0.9-2.8c-0.6-1.9-1.2-3.9-1.9-6c-0.6-2.1-1.3-4.2-2-6.4c-0.7-2.1-1.3-4.3-2-6.4c-0.6-2.1-1.3-4.1-1.9-6
								c-0.3-1-0.6-1.9-0.9-2.8c-0.3-0.9-0.6-1.7-0.8-2.5c-0.3-0.8-0.5-1.6-0.8-2.3c-0.2-0.7-0.5-1.4-0.7-2
								c-0.1-0.3-0.2-0.6-0.3-0.9c-0.1-0.3-0.2-0.5-0.3-0.8c-0.1-0.2-0.2-0.5-0.3-0.7c-0.1-0.2-0.2-0.4-0.3-0.6
								c0-0.1-0.1-0.2-0.1-0.3s-0.1-0.2-0.1-0.2c0-0.1-0.1-0.2-0.1-0.2c0-0.1-0.1-0.1-0.1-0.2c0,0,0-0.1-0.1-0.1
								c0,0-0.1-0.1-0.1-0.1c0,0-0.1-0.1-0.1-0.1c0,0-0.1-0.1-0.1-0.1c0,0,0,0-0.1-0.1c0,0-0.1,0-0.1-0.1c0,0-0.1,0-0.1-0.1
								c0,0-0.1,0-0.1-0.1c0,0-0.1,0-0.1-0.1c0,0-0.1,0-0.1-0.1c0,0-0.1,0-0.2,0C33.8,30.5,33.8,30.5,33.7,30.5"/>
						</g>
					</g>
				</g>
			</g>
		</g>
	</g>
</g>
<text transform="matrix(1 0 0 1 86.8785 78)" class="st4 st5 st6 st7">Medirec</text>
<g>
	<path class="st4" d="M414.3,96.5c-7.1,0.1-14.1,0.3-21.2,0.4l-21.2,0.3l0.7-0.4l-5.7,10.8c-0.2,0.4-0.7,0.6-1.2,0.4
		c-0.1-0.1-0.3-0.2-0.3-0.3l0,0L358.8,97l0.8,0.5l-14.2,0.3c-0.3,0-0.7-0.1-0.9-0.4l0,0l-6.2-6.6l1.8,0.1l-7,6.7
		c-0.3,0.2-0.6,0.4-0.9,0.4l0,0l-29.5,0.3l1.3-0.6l-9.2,11.1c-0.6,0.7-1.7,0.8-2.4,0.2c-0.1-0.1-0.1-0.1-0.2-0.2l0,0l-10-11.1
		l1.3,0.6l-18,0.1l-18,0.1c-0.5,0-0.9-0.2-1.3-0.5l0,0l-10.5-9.4l2.6,0L226.9,98c-0.4,0.3-0.8,0.5-1.3,0.5L202,98.4
		c-7.9,0-15.8-0.1-23.7-0.2l1.3-0.6l-8.5,9.7l0,0c-0.6,0.7-1.7,0.8-2.4,0.2c0,0,0,0,0,0l-10.7-9.8l1.1,0.4l-19.2-0.2l-19.2-0.3l0,0
		c-0.2,0-0.4-0.1-0.6-0.2l-10.8-6.8l1.1,0l-9.6,6.5l0,0c-0.1,0.1-0.3,0.1-0.4,0.1l-19.2-0.4c-6.4-0.1-12.8-0.3-19.2-0.4
		c6.4-0.2,12.8-0.3,19.2-0.4l19.2-0.4l-0.5,0.1l9.4-6.8c0.3-0.2,0.7-0.2,1.1,0l0,0l11,6.5l-0.6-0.2l19.2-0.3l19.2-0.2
		c0.4,0,0.8,0.1,1.1,0.4l0,0l10.8,9.7l-2.4,0.1l8.5-9.8c0.3-0.4,0.8-0.6,1.3-0.6l0,0c7.9,0,15.8-0.2,23.7-0.2l23.7-0.1l-1.3,0.5
		l11.3-9.4l0,0c0.8-0.6,1.9-0.6,2.6,0.1l10.5,9.4l-1.3-0.5l18,0.1l18,0.1l0,0c0.5,0,1,0.2,1.3,0.6l10,11.1l-2.6,0l9.3-11l0,0
		c0.3-0.4,0.8-0.6,1.3-0.6l29.5,0.3l-0.9,0.4l7-6.6l0,0c0.5-0.5,1.3-0.5,1.8,0.1l0,0l6.1,6.7l-0.9-0.4l14.2,0.3l0,0
		c0.3,0,0.6,0.2,0.8,0.5l6.3,10.8l-1.5,0l5.9-10.7l0,0c0.1-0.2,0.4-0.4,0.7-0.4l21.2,0.3C400.1,96.2,407.2,96.4,414.3,96.5z"/>
</g>
</svg>
